<svg width="140" height="145" viewBox="0 0 140 145" fill="none" xmlns="http://www.w3.org/2000/svg">
<path d="M69.994 120C98.9669 120 122.454 96.4555 122.454 67.4119C122.454 38.3682 98.9669 14.8237 69.994 14.8237C41.021 14.8237 17.5338 38.3682 17.5338 67.4119C17.5338 96.4555 41.021 120 69.994 120Z" fill="#F3F4F6"/>
<path d="M87.4086 12.6481C87.8639 12.2317 87.8957 11.5247 87.4796 11.0691C87.0636 10.6134 86.3572 10.5816 85.9019 10.998C85.4466 11.4144 85.4148 12.1213 85.8309 12.577C86.2469 13.0327 86.9533 13.0645 87.4086 12.6481Z" fill="#EAEEF9"/>
<g filter="url(#filter0_dd_384_1242)">
<path d="M118.888 41.7558C119.446 40.5661 118.725 39.1703 117.431 38.9375L85.7331 33.2336C84.1717 32.9527 82.5919 33.621 81.7061 34.9372L69.9266 52.4414L57.8176 34.8928C56.9262 33.601 55.3617 32.9498 53.817 33.2278L22.1423 38.9274C20.8317 39.1632 20.1133 40.5901 20.7043 41.7834L29.7028 59.9524L21.8554 75.2522C20.6696 77.5641 21.9682 80.3752 24.4972 80.9711L29.3494 82.1143V94.2669C29.3494 96.2272 30.77 97.8986 32.7046 98.2146L69.9266 104.294L108.493 97.9424C109.459 97.7833 110.168 96.9481 110.168 95.969V82.1143L115.128 80.9456C117.623 80.3578 118.929 77.6083 117.808 75.3032L110.345 59.9524L118.888 41.7558Z" fill="white"/>
<path d="M110.345 59.9524L69.9264 67.4635L29.7026 59.9524L69.9264 52.4414L110.345 59.9524Z" fill="url(#paint0_linear_384_1242)"/>
<path d="M69.9266 67.4634V104.294L31.027 97.9406C30.0597 97.7826 29.3494 96.9469 29.3494 95.9668V82.1144L53.5947 87.906C55.2474 88.3007 56.9691 87.6083 57.8882 86.1793L69.9266 67.4634Z" fill="url(#paint1_linear_384_1242)"/>
<path d="M110.345 59.9525L117.808 75.3033C118.929 77.6084 117.623 80.3579 115.128 80.9457L110.168 82.1144L85.9559 87.898C84.287 88.2967 82.5498 87.5866 81.638 86.1331L69.9265 67.4635L110.345 59.9525Z" fill="url(#paint2_linear_384_1242)"/>
<path d="M69.9266 67.4635L57.8883 86.1793C56.9691 87.6084 55.2474 88.3008 53.5948 87.906L29.3494 82.1144L24.4972 80.9712C21.9682 80.3753 20.6696 77.5641 21.8554 75.2523L29.7028 59.9525L69.9266 67.4635Z" fill="url(#paint3_linear_384_1242)"/>
</g>
<path d="M64.0273 56.9905C60.474 50.0814 59.6618 41.6482 61.9969 34.1295C64.3319 26.6107 69.7126 20.108 76.5146 16.4502C78.6466 15.3326 80.9816 14.4181 83.4182 14.3165C85.8547 14.2149 88.3928 15.0277 90.0171 16.9582C91.6415 18.7871 91.9461 21.7337 90.6263 23.7658C89.205 25.6963 86.4638 26.4075 84.1288 25.8995C80.474 25.1882 77.4283 22.3433 76.5146 18.8887C75.6009 15.4342 76.8192 11.37 79.5603 9.03306C81.3877 7.40738 83.8243 6.59455 86.1593 5.88331C97.3268 2.63196 109.408 2.22554 120.779 4.66405" stroke="#CBD7E8" stroke-miterlimit="10" stroke-dasharray="4 4"/>
<path d="M126.769 2.0224C126.668 3.54647 126.566 4.86734 125.449 5.17215C124.333 5.47697 123.825 4.46092 123.114 3.03845C122.404 1.71759 122.81 0.396723 124.028 0.0919089C125.246 -0.212906 126.972 0.193514 126.769 2.0224Z" fill="#DAE2EB"/>
<path d="M125.653 9.13481C125.957 7.30593 126.262 6.39148 125.246 5.88346C124.13 5.37543 123.419 6.28988 122.302 7.50914C121.287 8.62679 121.896 10.1509 122.911 10.6589C124.028 11.2685 125.348 10.6589 125.653 9.13481Z" fill="#DAE2EB"/>
<path d="M126.972 5.88329C126.871 6.59453 126.363 7.10255 125.652 7.20416C125.348 7.20416 125.043 7.20416 124.637 7.20416C123.216 7.00095 122.099 6.0865 122.201 5.17206C122.302 4.25762 123.622 3.74959 125.145 3.9528C125.449 3.9528 125.754 4.05441 125.957 4.15601C126.668 4.35922 127.074 5.07046 126.972 5.88329C126.972 5.88329 126.972 5.78169 126.972 5.88329Z" fill="#A7B0C1"/>
<path d="M15.9073 33.8247C15.9073 32.0974 15.9073 30.4717 17.1256 29.9637C18.4454 29.4557 19.1561 30.6749 20.0698 32.3006C20.9835 33.8247 20.5774 35.3488 19.2576 35.8568C18.1408 36.3648 15.9073 36.06 15.9073 33.8247Z" fill="#DAE2EB"/>
<path d="M16.6173 25.4931C16.4143 27.6268 16.1097 28.7444 17.4295 29.2524C18.7493 29.7605 19.46 28.6428 20.6782 27.0171C21.6935 25.5947 20.9828 23.8674 19.663 23.3594C18.3432 22.8513 16.8204 23.7658 16.6173 25.4931Z" fill="#DAE2EB"/>
<path d="M15.5 29.4557C15.5 28.6429 16.1091 28.0333 16.8198 27.9317C17.1244 27.8301 17.5305 27.8301 17.9365 27.9317C19.5609 28.0333 20.8807 28.9477 20.7792 29.9638C20.6777 30.9798 19.3579 31.6911 17.7335 31.4878C17.4289 31.4878 17.1244 31.3862 16.8198 31.2846C16.0076 31.0814 15.5 30.2686 15.5 29.4557Z" fill="#A7B0C1"/>
<path d="M22.3016 29.7606C32.7585 29.7606 52.0478 35.8569 52.3524 58.1084" stroke="#CBD7E8" stroke-miterlimit="10" stroke-dasharray="4 4"/>
<path d="M131.252 46.2523C133.598 46.2523 135.5 44.3535 135.5 42.0113C135.5 39.669 133.598 37.7703 131.252 37.7703C128.906 37.7703 127.004 39.669 127.004 42.0113C127.004 44.3535 128.906 46.2523 131.252 46.2523Z" fill="#F3F4F6"/>
<path d="M124.927 35.6112C126.53 35.6112 127.828 34.3145 127.828 32.7149C127.828 31.1153 126.53 29.8186 124.927 29.8186C123.325 29.8186 122.026 31.1153 122.026 32.7149C122.026 34.3145 123.325 35.6112 124.927 35.6112Z" fill="#F3F4F6"/>
<path d="M27.8567 118.469C30.8322 118.469 33.2443 116.061 33.2443 113.091C33.2443 110.12 30.8322 107.712 27.8567 107.712C24.8812 107.712 22.4691 110.12 22.4691 113.091C22.4691 116.061 24.8812 118.469 27.8567 118.469Z" fill="#F3F4F6"/>
<defs>
<filter id="filter0_dd_384_1242" x="0.495117" y="33.1644" width="138.583" height="111.13" filterUnits="userSpaceOnUse" color-interpolation-filters="sRGB">
<feFlood flood-opacity="0" result="BackgroundImageFix"/>
<feColorMatrix in="SourceAlpha" type="matrix" values="0 0 0 0 0 0 0 0 0 0 0 0 0 0 0 0 0 0 127 0" result="hardAlpha"/>
<feMorphology radius="4" operator="erode" in="SourceAlpha" result="effect1_dropShadow_384_1242"/>
<feOffset dy="8"/>
<feGaussianBlur stdDeviation="4"/>
<feColorMatrix type="matrix" values="0 0 0 0 0.0627451 0 0 0 0 0.0941176 0 0 0 0 0.156863 0 0 0 0.03 0"/>
<feBlend mode="normal" in2="BackgroundImageFix" result="effect1_dropShadow_384_1242"/>
<feColorMatrix in="SourceAlpha" type="matrix" values="0 0 0 0 0 0 0 0 0 0 0 0 0 0 0 0 0 0 127 0" result="hardAlpha"/>
<feMorphology radius="4" operator="erode" in="SourceAlpha" result="effect2_dropShadow_384_1242"/>
<feOffset dy="20"/>
<feGaussianBlur stdDeviation="12"/>
<feColorMatrix type="matrix" values="0 0 0 0 0.0627451 0 0 0 0 0.0941176 0 0 0 0 0.156863 0 0 0 0.08 0"/>
<feBlend mode="normal" in2="effect1_dropShadow_384_1242" result="effect2_dropShadow_384_1242"/>
<feBlend mode="normal" in="SourceGraphic" in2="effect2_dropShadow_384_1242" result="shape"/>
</filter>
<linearGradient id="paint0_linear_384_1242" x1="70.256" y1="52.6665" x2="70.256" y2="67.588" gradientUnits="userSpaceOnUse">
<stop stop-color="#D6E1F2"/>
<stop offset="1" stop-color="#B1BED0"/>
</linearGradient>
<linearGradient id="paint1_linear_384_1242" x1="49.638" y1="67.4634" x2="49.3661" y2="99.9178" gradientUnits="userSpaceOnUse">
<stop stop-color="#D2DCED"/>
<stop offset="1" stop-color="#C3CEDB"/>
</linearGradient>
<linearGradient id="paint2_linear_384_1242" x1="88.1618" y1="66.0959" x2="98.5" y2="96" gradientUnits="userSpaceOnUse">
<stop stop-color="#EDF0F6"/>
<stop offset="1" stop-color="#FCFDFF"/>
</linearGradient>
<linearGradient id="paint3_linear_384_1242" x1="44.7249" y1="59.9525" x2="44.5" y2="94.5" gradientUnits="userSpaceOnUse">
<stop stop-color="#EDF0F6"/>
<stop offset="1" stop-color="#FBFCFE"/>
</linearGradient>
</defs>
</svg>
