<svg width="122" height="142" viewBox="0 0 122 142" fill="none" xmlns="http://www.w3.org/2000/svg">
<path d="M62.0137 115C91.1528 115 114.776 91.3768 114.776 62.1336C114.776 32.8905 91.0487 9.26703 62.0137 9.26703C32.8746 9.26703 9.25116 32.8905 9.25116 62.1336C9.25116 91.3768 32.8746 115 62.0137 115Z" fill="#F3F4F6"/>
<path d="M111.342 27.4789C113.698 27.4789 115.609 25.5686 115.609 23.2121C115.609 20.8556 113.698 18.9453 111.342 18.9453C108.986 18.9453 107.075 20.8556 107.075 23.2121C107.075 25.5686 108.986 27.4789 111.342 27.4789Z" fill="#F3F4F6"/>
<path d="M117.586 10.8279C119.195 10.8279 120.5 9.52334 120.5 7.91403C120.5 6.30472 119.195 5.00012 117.586 5.00012C115.977 5.00012 114.672 6.30472 114.672 7.91403C114.672 9.52334 115.977 10.8279 117.586 10.8279Z" fill="#F3F4F6"/>
<path d="M12.061 27.3748C13.6703 27.3748 14.9749 26.0702 14.9749 24.4609C14.9749 22.8516 13.6703 21.547 12.061 21.547C10.4517 21.547 9.14709 22.8516 9.14709 24.4609C9.14709 26.0702 10.4517 27.3748 12.061 27.3748Z" fill="#F3F4F6"/>
<path d="M14.5585 112.19C17.5472 112.19 19.9701 109.767 19.9701 106.779C19.9701 103.79 17.5472 101.367 14.5585 101.367C11.5698 101.367 9.14697 103.79 9.14697 106.779C9.14697 109.767 11.5698 112.19 14.5585 112.19Z" fill="#F3F4F6"/>
<g filter="url(#filter0_d_384_1268)">
<path d="M97.9172 35.7003L98.7497 102.72C98.7497 105.01 96.8765 106.779 94.587 106.779H29.2322C26.9427 106.779 25.0695 104.906 25.0695 102.72V16.5518C25.0695 14.2623 26.9427 12.4931 29.2322 12.4931H76.5832L97.9172 35.7003Z" fill="url(#paint0_linear_384_1268)"/>
</g>
<path d="M56.9144 93.3539H54.5208C54.0004 93.3539 53.5842 92.8336 53.5842 92.2091C53.5842 91.5847 54.0004 91.0644 54.5208 91.0644H56.9144C57.4347 91.0644 57.851 91.5847 57.851 92.2091C57.851 92.9376 57.4347 93.3539 56.9144 93.3539Z" fill="#CED7E2"/>
<path d="M49.6295 93.3539H35.6844C35.1641 93.3539 34.7478 92.8336 34.7478 92.2091C34.7478 91.5847 35.1641 91.0644 35.6844 91.0644H49.6295C50.1499 91.0644 50.5662 91.5847 50.5662 92.2091C50.5662 92.9376 50.1499 93.3539 49.6295 93.3539Z" fill="#D5DDEA"/>
<path d="M67.4252 26.5425H36.1007C35.3722 26.5425 34.7478 25.9181 34.7478 25.1896C34.7478 24.4611 35.3722 23.8367 36.1007 23.8367H67.4252C68.1537 23.8367 68.7781 24.4611 68.7781 25.1896C68.7781 25.9181 68.1537 26.5425 67.4252 26.5425Z" fill="#D5DDEA"/>
<path d="M48.1726 34.0352H36.1007C35.3722 34.0352 34.7478 33.4108 34.7478 32.6823C34.7478 31.9538 35.3722 31.3294 36.1007 31.3294H48.0685C48.797 31.3294 49.4214 31.9538 49.4214 32.6823C49.4214 33.4108 48.797 34.0352 48.1726 34.0352Z" fill="#D5DDEA"/>
<path d="M76.5833 12.4931V31.0172C76.5833 33.6189 78.8727 35.7003 81.4745 35.7003H97.9172" fill="#D5DDEA"/>
<path d="M102.912 108.34C101.872 108.34 100.831 107.923 99.9986 106.987L82.6192 89.6075L81.9948 90.0237C76.3751 94.1864 69.8188 96.3719 63.1584 96.3719C55.1452 96.3719 47.1319 93.1458 41.2001 87.5261C34.956 81.5942 31.5217 73.581 31.5217 64.8392C31.5217 47.4598 45.675 33.3066 63.0544 33.3066C74.9181 33.3066 85.325 39.5507 90.9446 50.1656C96.4602 60.6765 95.7318 72.9565 88.9673 82.843L88.5511 83.4674L106.035 100.951C107.804 102.72 107.387 104.489 107.075 105.426C106.243 107.091 104.578 108.34 102.912 108.34ZM63.0544 41.9442C50.3581 41.9442 40.1594 52.247 40.1594 64.8392C40.1594 79.2006 51.9191 87.8383 63.3666 87.8383C70.3391 87.8383 76.6873 84.7162 81.1622 79.0966C86.6778 72.2281 87.6145 62.966 83.7639 54.9528C79.8093 46.9395 71.9002 41.9442 63.0544 41.9442Z" fill="url(#paint1_linear_384_1268)"/>
<path d="M70.0737 69.5801L66.2089 65.7153L70.0829 61.8412C70.8753 61.0488 70.9651 59.7295 70.0868 58.8511C69.2963 58.0606 67.9771 57.9745 67.0966 58.855L63.2226 62.729L59.3578 58.8642C58.5672 58.0737 57.2481 57.9876 56.3676 58.868C55.4871 59.7485 55.4858 60.9794 56.3642 61.8577L60.229 65.7226L56.3545 69.5971C55.5621 70.3895 55.4728 71.7084 56.3511 72.5868C57.1416 73.3773 58.4603 73.4638 59.3408 72.5833L63.2153 68.7089L67.0801 72.5737C67.8706 73.3642 69.1894 73.4507 70.0698 72.5703C70.9503 71.6898 70.8642 70.3706 70.0737 69.5801Z" fill="url(#paint2_linear_384_1268)"/>
<defs>
<filter id="filter0_d_384_1268" x="2.17447" y="1.04561" width="119.47" height="140.076" filterUnits="userSpaceOnUse" color-interpolation-filters="sRGB">
<feFlood flood-opacity="0" result="BackgroundImageFix"/>
<feColorMatrix in="SourceAlpha" type="matrix" values="0 0 0 0 0 0 0 0 0 0 0 0 0 0 0 0 0 0 127 0" result="hardAlpha"/>
<feOffset dy="11.4475"/>
<feGaussianBlur stdDeviation="11.4475"/>
<feColorMatrix type="matrix" values="0 0 0 0 0.397708 0 0 0 0 0.47749 0 0 0 0 0.575 0 0 0 0.27 0"/>
<feBlend mode="normal" in2="BackgroundImageFix" result="effect1_dropShadow_384_1268"/>
<feBlend mode="normal" in="SourceGraphic" in2="effect1_dropShadow_384_1268" result="shape"/>
</filter>
<linearGradient id="paint0_linear_384_1268" x1="61.8856" y1="10.3122" x2="61.8856" y2="107.795" gradientUnits="userSpaceOnUse">
<stop stop-color="#FDFEFF"/>
<stop offset="0.9964" stop-color="#ECF0F5"/>
</linearGradient>
<linearGradient id="paint1_linear_384_1268" x1="69.4379" y1="33.3066" x2="69.4379" y2="108.34" gradientUnits="userSpaceOnUse">
<stop stop-color="#C8D3E1"/>
<stop offset="1" stop-color="#A9B6C9"/>
</linearGradient>
<linearGradient id="paint2_linear_384_1268" x1="70.0868" y1="58.8511" x2="56.3511" y2="72.5868" gradientUnits="userSpaceOnUse">
<stop stop-color="#C8D3E1"/>
<stop offset="1" stop-color="#A9B6C9"/>
</linearGradient>
</defs>
</svg>
