<svg width="40" height="40" viewBox="0 0 40 40" fill="none" xmlns="http://www.w3.org/2000/svg">
<path fill-rule="evenodd" clip-rule="evenodd" d="M26.3367 0L34.9998 7.95719V36C34.9998 38.2091 33.209 40 30.9998 40H9C6.79086 40 5 38.2091 5 36V4C5 1.79086 6.79086 0 9 0H26.3367ZM26 1.72749V8.5H33.3734L26 1.72749ZM33.4998 9.5H26C25.4477 9.5 25 9.05229 25 8.5V1.5H9C7.61929 1.5 6.5 2.61929 6.5 4V36C6.5 37.3807 7.61929 38.5 9 38.5H30.9998C32.3805 38.5 33.4998 37.3807 33.4998 36V9.5Z" fill="#98A2B3"/>
<path fill-rule="evenodd" clip-rule="evenodd" d="M13.3329 23.0003C13.3329 22.6321 13.6314 22.3336 13.9996 22.3336H25.9996C26.3677 22.3336 26.6662 22.6321 26.6662 23.0003C26.6662 23.3685 26.3677 23.667 25.9996 23.667H13.9996C13.6314 23.667 13.3329 23.3685 13.3329 23.0003ZM13.3329 25.667C13.3329 25.2988 13.6314 25.0003 13.9996 25.0003H23.3329C23.7011 25.0003 23.9996 25.2988 23.9996 25.667C23.9996 26.0351 23.7011 26.3336 23.3329 26.3336H13.9996C13.6314 26.3336 13.3329 26.0351 13.3329 25.667ZM13.3329 28.3336C13.3329 27.9654 13.6314 27.667 13.9996 27.667H25.9996C26.3677 27.667 26.6662 27.9654 26.6662 28.3336C26.6662 28.7018 26.3677 29.0003 25.9996 29.0003H13.9996C13.6314 29.0003 13.3329 28.7018 13.3329 28.3336ZM13.3329 31.0003C13.3329 30.6321 13.6314 30.3336 13.9996 30.3336H23.3329C23.7011 30.3336 23.9996 30.6321 23.9996 31.0003C23.9996 31.3685 23.7011 31.667 23.3329 31.667H13.9996C13.6314 31.667 13.3329 31.3685 13.3329 31.0003Z" fill="#12B76A"/>
</svg>
