<svg width="24" height="24" viewBox="0 0 24 24" fill="none" xmlns="http://www.w3.org/2000/svg">
<rect width="24" height="24" rx="4" fill="black"/>
<path fill-rule="evenodd" clip-rule="evenodd" d="M7.59547 17.8806C7.83366 18 7.95275 18 8.19094 18C8.42913 18 8.54822 18 8.78641 17.8806L17.123 13.1045C17.4803 12.8657 17.7184 12.5075 17.7184 12.0299C17.7184 11.5522 17.4803 11.194 17.123 10.9552L8.78641 6.1791C8.42913 5.9403 7.95275 5.9403 7.59547 6.1791C7.23819 6.41791 7 6.77612 7 7.25373V16.806C7 17.2836 7.23819 17.6418 7.59547 17.8806ZM14.1456 12.0299L9.38188 14.7761V9.28358L14.1456 12.0299Z" fill="white"/>
</svg>
