<svg width="40" height="40" viewBox="0 0 40 40" fill="none" xmlns="http://www.w3.org/2000/svg">
<mask id="path-1-inside-1_291_3722" fill="white">
<path fill-rule="evenodd" clip-rule="evenodd" d="M26.3367 0L34.9998 7.95719V36C34.9998 38.2091 33.209 40 30.9998 40H9C6.79086 40 5 38.2091 5 36V4C5 1.79086 6.79086 0 9 0H26.3367ZM26 1.72749V8.5H33.3734L26 1.72749ZM33.4998 9.5H26C25.4477 9.5 25 9.05229 25 8.5V1.5H9C7.61929 1.5 6.5 2.61929 6.5 4V36C6.5 37.3807 7.61929 38.5 9 38.5H30.9998C32.3805 38.5 33.4998 37.3807 33.4998 36V9.5Z"/>
</mask>
<path fill-rule="evenodd" clip-rule="evenodd" d="M26.3367 0L34.9998 7.95719V36C34.9998 38.2091 33.209 40 30.9998 40H9C6.79086 40 5 38.2091 5 36V4C5 1.79086 6.79086 0 9 0H26.3367ZM26 1.72749V8.5H33.3734L26 1.72749ZM33.4998 9.5H26C25.4477 9.5 25 9.05229 25 8.5V1.5H9C7.61929 1.5 6.5 2.61929 6.5 4V36C6.5 37.3807 7.61929 38.5 9 38.5H30.9998C32.3805 38.5 33.4998 37.3807 33.4998 36V9.5Z" fill="#101828"/>
<path d="M34.9998 7.95719H35.9998V7.51788L35.6763 7.22071L34.9998 7.95719ZM26.3367 0L27.0131 -0.736477L26.7262 -1H26.3367V0ZM26 1.72749L26.6765 0.991008L25 -0.548841V1.72749H26ZM26 8.5H25V9.5H26V8.5ZM33.3734 8.5V9.5H35.9404L34.0498 7.76352L33.3734 8.5ZM33.4998 9.5H34.4998V8.5H33.4998V9.5ZM25 1.5H26V0.5H25V1.5ZM35.6763 7.22071L27.0131 -0.736477L25.6602 0.736477L34.3234 8.69367L35.6763 7.22071ZM35.9998 36V7.95719H33.9998V36H35.9998ZM30.9998 41C33.7612 41 35.9998 38.7614 35.9998 36H33.9998C33.9998 37.6569 32.6567 39 30.9998 39V41ZM9 41H30.9998V39H9V41ZM4 36C4 38.7614 6.23858 41 9 41V39C7.34315 39 6 37.6569 6 36H4ZM4 4V36H6V4H4ZM9 -1C6.23858 -1 4 1.23858 4 4H6C6 2.34315 7.34315 1 9 1V-1ZM26.3367 -1H9V1H26.3367V-1ZM25 1.72749V8.5H27V1.72749H25ZM26 9.5H33.3734V7.5H26V9.5ZM25.3235 2.46396L32.6969 9.23648L34.0498 7.76352L26.6765 0.991008L25.3235 2.46396ZM33.4998 8.5H26V10.5H33.4998V8.5ZM26 8.5H24C24 9.60457 24.8954 10.5 26 10.5V8.5ZM26 8.5V1.5H24V8.5H26ZM9 2.5H25V0.5H9V2.5ZM7.5 4C7.5 3.17157 8.17157 2.5 9 2.5V0.5C7.067 0.5 5.5 2.067 5.5 4H7.5ZM7.5 36V4H5.5V36H7.5ZM9 37.5C8.17157 37.5 7.5 36.8284 7.5 36H5.5C5.5 37.933 7.067 39.5 9 39.5V37.5ZM30.9998 37.5H9V39.5H30.9998V37.5ZM32.4998 36C32.4998 36.8284 31.8282 37.5 30.9998 37.5V39.5C32.9328 39.5 34.4998 37.933 34.4998 36H32.4998ZM32.4998 9.5V36H34.4998V9.5H32.4998Z" fill="#101828" mask="url(#path-1-inside-1_291_3722)"/>
<rect x="1" y="20" width="31.0341" height="13.19" rx="2" fill="#101828"/>
<path d="M29.0443 30.12L27.6143 27.97L26.3543 30.12H24.4143L26.6643 26.55L24.3643 23.1H26.3543L27.7643 25.22L29.0043 23.1H30.9443L28.7143 26.64L31.0343 30.12H29.0443Z" fill="white"/>
<path d="M16.8369 26.6C16.8369 25.9067 16.9869 25.29 17.2869 24.75C17.5869 24.2034 18.0036 23.78 18.5369 23.48C19.0769 23.1734 19.6869 23.02 20.3669 23.02C21.2002 23.02 21.9136 23.24 22.5069 23.68C23.1002 24.12 23.4969 24.72 23.6969 25.48H21.8169C21.6769 25.1867 21.4769 24.9634 21.2169 24.81C20.9636 24.6567 20.6736 24.58 20.3469 24.58C19.8202 24.58 19.3936 24.7634 19.0669 25.13C18.7402 25.4967 18.5769 25.9867 18.5769 26.6C18.5769 27.2134 18.7402 27.7034 19.0669 28.07C19.3936 28.4367 19.8202 28.62 20.3469 28.62C20.6736 28.62 20.9636 28.5434 21.2169 28.39C21.4769 28.2367 21.6769 28.0134 21.8169 27.72H23.6969C23.4969 28.48 23.1002 29.08 22.5069 29.52C21.9136 29.9534 21.2002 30.17 20.3669 30.17C19.6869 30.17 19.0769 30.02 18.5369 29.72C18.0036 29.4134 17.5869 28.99 17.2869 28.45C16.9869 27.91 16.8369 27.2934 16.8369 26.6Z" fill="white"/>
<path d="M12.5856 30.19C11.9256 30.19 11.3189 30.0367 10.7656 29.73C10.2189 29.4233 9.78225 28.9967 9.45559 28.45C9.13559 27.8967 8.97559 27.2767 8.97559 26.59C8.97559 25.9033 9.13559 25.2867 9.45559 24.74C9.78225 24.1933 10.2189 23.7667 10.7656 23.46C11.3189 23.1533 11.9256 23 12.5856 23C13.2456 23 13.8489 23.1533 14.3956 23.46C14.9489 23.7667 15.3823 24.1933 15.6956 24.74C16.0156 25.2867 16.1756 25.9033 16.1756 26.59C16.1756 27.2767 16.0156 27.8967 15.6956 28.45C15.3756 28.9967 14.9423 29.4233 14.3956 29.73C13.8489 30.0367 13.2456 30.19 12.5856 30.19ZM12.5856 28.63C13.1456 28.63 13.5923 28.4433 13.9256 28.07C14.2656 27.6967 14.4356 27.2033 14.4356 26.59C14.4356 25.97 14.2656 25.4767 13.9256 25.11C13.5923 24.7367 13.1456 24.55 12.5856 24.55C12.0189 24.55 11.5656 24.7333 11.2256 25.1C10.8923 25.4667 10.7256 25.9633 10.7256 26.59C10.7256 27.21 10.8923 27.7067 11.2256 28.08C11.5656 28.4467 12.0189 28.63 12.5856 28.63Z" fill="white"/>
<path d="M4.63 23.1C5.37 23.1 6.01667 23.2466 6.57 23.54C7.12333 23.8333 7.55 24.2466 7.85 24.78C8.15667 25.3066 8.31 25.9166 8.31 26.61C8.31 27.2966 8.15667 27.9066 7.85 28.44C7.55 28.9733 7.12 29.3866 6.56 29.68C6.00667 29.9733 5.36333 30.12 4.63 30.12H2V23.1H4.63ZM4.52 28.64C5.16667 28.64 5.67 28.4633 6.03 28.11C6.39 27.7566 6.57 27.2566 6.57 26.61C6.57 25.9633 6.39 25.46 6.03 25.1C5.67 24.74 5.16667 24.56 4.52 24.56H3.71V28.64H4.52Z" fill="white"/>
</svg>
