<svg width="24" height="24" viewBox="0 0 24 24" fill="none" xmlns="http://www.w3.org/2000/svg">
<rect width="24" height="24" rx="4" fill="#F3B100"/>
<path fill-rule="evenodd" clip-rule="evenodd" d="M9.3036 17.0816C9.4444 17.1784 9.6776 17.2268 10.0032 17.2268C10.3288 17.2268 10.562 17.1784 10.7028 17.0816C10.8436 16.9848 10.9316 16.8616 10.9668 16.712C11.002 16.5536 11.0196 16.3908 11.0196 16.2236V14.4944H12.7092C13.0788 14.4944 13.4528 14.4284 13.8312 14.2964C14.2096 14.1556 14.5572 13.9532 14.874 13.6892C15.1996 13.4164 15.4592 13.0776 15.6528 12.6728C15.8552 12.268 15.9564 11.7972 15.9564 11.2604C15.9564 10.7148 15.8552 10.2396 15.6528 9.8348C15.4592 9.43 15.1996 9.0912 14.874 8.8184C14.5572 8.5368 14.2096 8.33 13.8312 8.198C13.4616 8.066 13.092 8 12.7224 8H10.0164C9.6908 8 9.4576 8.0484 9.3168 8.1452C9.176 8.242 9.088 8.3696 9.0528 8.528C9.0176 8.6776 9 8.836 9 9.0032V16.2104C9 16.3776 9.0176 16.5404 9.0528 16.6988C9.088 16.8572 9.1716 16.9848 9.3036 17.0816ZM12.7224 12.488H11.0196V10.0064H12.7092C12.9556 10.0064 13.1712 10.0592 13.356 10.1648C13.5496 10.2704 13.6992 10.4156 13.8048 10.6004C13.9104 10.7852 13.9632 11.0008 13.9632 11.2472C13.9632 11.5376 13.8972 11.7752 13.7652 11.96C13.642 12.1448 13.4836 12.2812 13.29 12.3692C13.1052 12.4484 12.916 12.488 12.7224 12.488Z" fill="white"/>
</svg>
