<svg width="24" height="24" viewBox="0 0 24 24" fill="none" xmlns="http://www.w3.org/2000/svg">
<rect width="24" height="24" rx="4" fill="black"/>
<path d="M18.9373 15L17.6894 12.735H17.339V15H15.8774V9H18.3304C18.8034 9 19.2051 9.08262 19.5356 9.24786C19.8717 9.41311 20.1225 9.64103 20.2877 9.93162C20.4529 10.2165 20.5356 10.5356 20.5356 10.8889C20.5356 11.2877 20.4216 11.6439 20.1937 11.9573C19.9715 12.2707 19.641 12.4929 19.2022 12.6239L20.5868 15H18.9373ZM17.339 11.7009H18.245C18.5128 11.7009 18.7122 11.6353 18.8433 11.5043C18.98 11.3732 19.0484 11.188 19.0484 10.9487C19.0484 10.7208 18.98 10.5413 18.8433 10.4103C18.7122 10.2792 18.5128 10.2137 18.245 10.2137H17.339V11.7009Z" fill="white"/>
<path d="M13.3106 13.9402H11.0713L10.7123 15H9.18237L11.3533 9H13.0456L15.2166 15H13.6696L13.3106 13.9402ZM12.9345 12.812L12.1909 10.6154L11.4559 12.812H12.9345Z" fill="white"/>
<path d="M7.05983 15L5.81197 12.735H5.46154V15H4V9H6.45299C6.92593 9 7.32764 9.08262 7.65812 9.24786C7.9943 9.41311 8.24501 9.64103 8.41026 9.93162C8.5755 10.2165 8.65812 10.5356 8.65812 10.8889C8.65812 11.2877 8.54416 11.6439 8.31624 11.9573C8.09402 12.2707 7.76353 12.4929 7.32479 12.6239L8.7094 15H7.05983ZM5.46154 11.7009H6.36752C6.63533 11.7009 6.83476 11.6353 6.96581 11.5043C7.10256 11.3732 7.17094 11.188 7.17094 10.9487C7.17094 10.7208 7.10256 10.5413 6.96581 10.4103C6.83476 10.2792 6.63533 10.2137 6.36752 10.2137H5.46154V11.7009Z" fill="white"/>
</svg>
