<svg width="24" height="24" viewBox="0 0 24 24" fill="none" xmlns="http://www.w3.org/2000/svg">
<rect width="24" height="24" rx="4" fill="black"/>
<path d="M14.5713 14.8574C14.8869 14.8574 15.1426 15.1131 15.1426 15.4287C15.1425 15.7442 14.8868 16 14.5713 16H6.57129C6.25581 15.9999 6.00008 15.7442 6 15.4287C6 15.1132 6.25576 14.8575 6.57129 14.8574H14.5713ZM16.8574 12.5713C17.1728 12.5714 17.4286 12.8272 17.4287 13.1426C17.4287 13.4581 17.1729 13.7137 16.8574 13.7139H6.57129C6.25576 13.7138 6 13.4581 6 13.1426C6.00015 12.8272 6.25585 12.5714 6.57129 12.5713H16.8574ZM14.5713 10.2861C14.8869 10.2861 15.1426 10.5418 15.1426 10.8574C15.1424 11.1729 14.8868 11.4287 14.5713 11.4287H6.57129C6.25585 11.4286 6.00015 11.1728 6 10.8574C6 10.5419 6.25576 10.2862 6.57129 10.2861H14.5713ZM16.8574 8C17.1728 8.00015 17.4286 8.25586 17.4287 8.57129C17.4287 8.88679 17.1729 9.14243 16.8574 9.14258H6.57129C6.25576 9.1425 6 8.88683 6 8.57129C6.00008 8.25581 6.25581 8.00008 6.57129 8H16.8574Z" fill="white"/>
</svg>
