<svg width="40" height="40" viewBox="0 0 40 40" fill="none" xmlns="http://www.w3.org/2000/svg">
<mask id="path-1-inside-1_291_3704" fill="white">
<path fill-rule="evenodd" clip-rule="evenodd" d="M26.3367 0L34.9998 7.95719V36C34.9998 38.2091 33.209 40 30.9998 40H9C6.79086 40 5 38.2091 5 36V4C5 1.79086 6.79086 0 9 0H26.3367ZM26 1.72749V8.5H33.3734L26 1.72749ZM33.4998 9.5H26C25.4477 9.5 25 9.05229 25 8.5V1.5H9C7.61929 1.5 6.5 2.61929 6.5 4V36C6.5 37.3807 7.61929 38.5 9 38.5H30.9998C32.3805 38.5 33.4998 37.3807 33.4998 36V9.5Z"/>
</mask>
<path fill-rule="evenodd" clip-rule="evenodd" d="M26.3367 0L34.9998 7.95719V36C34.9998 38.2091 33.209 40 30.9998 40H9C6.79086 40 5 38.2091 5 36V4C5 1.79086 6.79086 0 9 0H26.3367ZM26 1.72749V8.5H33.3734L26 1.72749ZM33.4998 9.5H26C25.4477 9.5 25 9.05229 25 8.5V1.5H9C7.61929 1.5 6.5 2.61929 6.5 4V36C6.5 37.3807 7.61929 38.5 9 38.5H30.9998C32.3805 38.5 33.4998 37.3807 33.4998 36V9.5Z" fill="#101828"/>
<path d="M34.9998 7.95719H35.9998V7.51788L35.6763 7.22071L34.9998 7.95719ZM26.3367 0L27.0131 -0.736477L26.7262 -1H26.3367V0ZM26 1.72749L26.6765 0.991008L25 -0.548841V1.72749H26ZM26 8.5H25V9.5H26V8.5ZM33.3734 8.5V9.5H35.9404L34.0498 7.76352L33.3734 8.5ZM33.4998 9.5H34.4998V8.5H33.4998V9.5ZM25 1.5H26V0.5H25V1.5ZM35.6763 7.22071L27.0131 -0.736477L25.6602 0.736477L34.3234 8.69367L35.6763 7.22071ZM35.9998 36V7.95719H33.9998V36H35.9998ZM30.9998 41C33.7612 41 35.9998 38.7614 35.9998 36H33.9998C33.9998 37.6569 32.6567 39 30.9998 39V41ZM9 41H30.9998V39H9V41ZM4 36C4 38.7614 6.23858 41 9 41V39C7.34315 39 6 37.6569 6 36H4ZM4 4V36H6V4H4ZM9 -1C6.23858 -1 4 1.23858 4 4H6C6 2.34315 7.34315 1 9 1V-1ZM26.3367 -1H9V1H26.3367V-1ZM25 1.72749V8.5H27V1.72749H25ZM26 9.5H33.3734V7.5H26V9.5ZM25.3235 2.46396L32.6969 9.23648L34.0498 7.76352L26.6765 0.991008L25.3235 2.46396ZM33.4998 8.5H26V10.5H33.4998V8.5ZM26 8.5H24C24 9.60457 24.8954 10.5 26 10.5V8.5ZM26 8.5V1.5H24V8.5H26ZM9 2.5H25V0.5H9V2.5ZM7.5 4C7.5 3.17157 8.17157 2.5 9 2.5V0.5C7.067 0.5 5.5 2.067 5.5 4H7.5ZM7.5 36V4H5.5V36H7.5ZM9 37.5C8.17157 37.5 7.5 36.8284 7.5 36H5.5C5.5 37.933 7.067 39.5 9 39.5V37.5ZM30.9998 37.5H9V39.5H30.9998V37.5ZM32.4998 36C32.4998 36.8284 31.8282 37.5 30.9998 37.5V39.5C32.9328 39.5 34.4998 37.933 34.4998 36H32.4998ZM32.4998 9.5V36H34.4998V9.5H32.4998Z" fill="#101828" mask="url(#path-1-inside-1_291_3704)"/>
<rect x="1" y="20" width="25.697" height="13.19" rx="2" fill="#101828"/>
<path d="M17.8369 26.6C17.8369 25.9067 17.9869 25.29 18.2869 24.75C18.5869 24.2034 19.0036 23.78 19.5369 23.48C20.0769 23.1734 20.6869 23.02 21.3669 23.02C22.2002 23.02 22.9136 23.24 23.5069 23.68C24.1002 24.12 24.4969 24.72 24.6969 25.48H22.8169C22.6769 25.1867 22.4769 24.9634 22.2169 24.81C21.9636 24.6567 21.6736 24.58 21.3469 24.58C20.8202 24.58 20.3936 24.7634 20.0669 25.13C19.7402 25.4967 19.5769 25.9867 19.5769 26.6C19.5769 27.2134 19.7402 27.7034 20.0669 28.07C20.3936 28.4367 20.8202 28.62 21.3469 28.62C21.6736 28.62 21.9636 28.5434 22.2169 28.39C22.4769 28.2367 22.6769 28.0134 22.8169 27.72H24.6969C24.4969 28.48 24.1002 29.08 23.5069 29.52C22.9136 29.9534 22.2002 30.17 21.3669 30.17C20.6869 30.17 20.0769 30.02 19.5369 29.72C19.0036 29.4134 18.5869 28.99 18.2869 28.45C17.9869 27.91 17.8369 27.2934 17.8369 26.6Z" fill="white"/>
<path d="M13.5856 30.19C12.9256 30.19 12.3189 30.0367 11.7656 29.73C11.2189 29.4233 10.7823 28.9967 10.4556 28.45C10.1356 27.8967 9.97559 27.2767 9.97559 26.59C9.97559 25.9033 10.1356 25.2867 10.4556 24.74C10.7823 24.1933 11.2189 23.7667 11.7656 23.46C12.3189 23.1533 12.9256 23 13.5856 23C14.2456 23 14.8489 23.1533 15.3956 23.46C15.9489 23.7667 16.3823 24.1933 16.6956 24.74C17.0156 25.2867 17.1756 25.9033 17.1756 26.59C17.1756 27.2767 17.0156 27.8967 16.6956 28.45C16.3756 28.9967 15.9423 29.4233 15.3956 29.73C14.8489 30.0367 14.2456 30.19 13.5856 30.19ZM13.5856 28.63C14.1456 28.63 14.5923 28.4433 14.9256 28.07C15.2656 27.6967 15.4356 27.2033 15.4356 26.59C15.4356 25.97 15.2656 25.4767 14.9256 25.11C14.5923 24.7367 14.1456 24.55 13.5856 24.55C13.0189 24.55 12.5656 24.7333 12.2256 25.1C11.8923 25.4667 11.7256 25.9633 11.7256 26.59C11.7256 27.21 11.8923 27.7067 12.2256 28.08C12.5656 28.4467 13.0189 28.63 13.5856 28.63Z" fill="white"/>
<path d="M5.63 23.1C6.37 23.1 7.01667 23.2466 7.57 23.54C8.12333 23.8333 8.55 24.2466 8.85 24.78C9.15667 25.3066 9.31 25.9166 9.31 26.61C9.31 27.2966 9.15667 27.9066 8.85 28.44C8.55 28.9733 8.12 29.3866 7.56 29.68C7.00667 29.9733 6.36333 30.12 5.63 30.12H3V23.1H5.63ZM5.52 28.64C6.16667 28.64 6.67 28.4633 7.03 28.11C7.39 27.7566 7.57 27.2566 7.57 26.61C7.57 25.9633 7.39 25.46 7.03 25.1C6.67 24.74 6.16667 24.56 5.52 24.56H4.71V28.64H5.52Z" fill="white"/>
</svg>
