<svg width="24" height="24" viewBox="0 0 24 24" fill="none" xmlns="http://www.w3.org/2000/svg">
<rect width="24" height="24" rx="4" fill="black"/>
<path d="M18.2875 10.9316C18.2875 11.2792 18.2077 11.5983 18.0482 11.8889C17.8886 12.1738 17.6436 12.4046 17.3131 12.5812C16.9826 12.7578 16.5724 12.8462 16.0824 12.8462H15.1764V15H13.7148V9H16.0824C16.561 9 16.9656 9.08262 17.296 9.24786C17.6265 9.41311 17.8744 9.64103 18.0396 9.93162C18.2049 10.2222 18.2875 10.5556 18.2875 10.9316ZM15.9713 11.6838C16.2505 11.6838 16.4584 11.6182 16.5952 11.4872C16.7319 11.3561 16.8003 11.1709 16.8003 10.9316C16.8003 10.6923 16.7319 10.5071 16.5952 10.3761C16.4584 10.245 16.2505 10.1795 15.9713 10.1795H15.1764V11.6838H15.9713Z" fill="white"/>
<path d="M12.6556 9V15H11.1941V9H12.6556Z" fill="white"/>
<path d="M7.65812 13.8034H10.2393V15H6V13.8889L8.5641 10.1966H6V9H10.2393V10.1111L7.65812 13.8034Z" fill="white"/>
</svg>
