<svg width="40" height="40" viewBox="0 0 40 40" fill="none" xmlns="http://www.w3.org/2000/svg">
<path d="M9 0.75H26.0439L34.25 8.28711V36C34.25 37.7949 32.7948 39.2499 31 39.25H9C7.20507 39.25 5.75 37.7949 5.75 36V4C5.75 2.20508 7.20508 0.75 9 0.75Z" stroke="#98A2B3" stroke-width="1.5"/>
<mask id="path-2-inside-1_291_1890" fill="white">
<path fill-rule="evenodd" clip-rule="evenodd" d="M25 8.5V1H26V8.5H33.5V9.5H26C25.4477 9.5 25 9.05229 25 8.5Z"/>
</mask>
<path fill-rule="evenodd" clip-rule="evenodd" d="M25 8.5V1H26V8.5H33.5V9.5H26C25.4477 9.5 25 9.05229 25 8.5Z" fill="#D0D5DD"/>
<path d="M25 1V0H24V1H25ZM26 1H27V0H26V1ZM26 8.5H25V9.5H26V8.5ZM33.5 8.5H34.5V7.5H33.5V8.5ZM33.5 9.5V10.5H34.5V9.5H33.5ZM26 8.5V1H24V8.5H26ZM25 2H26V0H25V2ZM25 1V8.5H27V1H25ZM26 9.5H33.5V7.5H26V9.5ZM32.5 8.5V9.5H34.5V8.5H32.5ZM33.5 8.5H26V10.5H33.5V8.5ZM26 8.5H26H24C24 9.60457 24.8954 10.5 26 10.5V8.5Z" fill="#98A2B3" mask="url(#path-2-inside-1_291_1890)"/>
<rect x="1" y="20" width="24.2999" height="13.53" rx="2" fill="#DC6803"/>
<path d="M10.95 23.45V30.47H9.24V26.26L7.67 30.47H6.29L4.71 26.25V30.47H3V23.45H5.02L6.99 28.31L8.94 23.45H10.95Z" fill="white"/>
<path d="M17.5297 25.71C17.5297 26.1167 17.4364 26.49 17.2497 26.83C17.063 27.1633 16.7764 27.4333 16.3897 27.64C16.003 27.8467 15.523 27.95 14.9497 27.95H13.8897V30.47H12.1797V23.45H14.9497C15.5097 23.45 15.983 23.5467 16.3697 23.74C16.7564 23.9333 17.0464 24.2 17.2397 24.54C17.433 24.88 17.5297 25.27 17.5297 25.71ZM14.8197 26.59C15.1464 26.59 15.3897 26.5133 15.5497 26.36C15.7097 26.2067 15.7897 25.99 15.7897 25.71C15.7897 25.43 15.7097 25.2133 15.5497 25.06C15.3897 24.9067 15.1464 24.83 14.8197 24.83H13.8897V26.59H14.8197Z" fill="white"/>
<path d="M18.3099 25.23C18.3366 24.5167 18.5699 23.9667 19.0099 23.58C19.4499 23.1933 20.0466 23 20.7999 23C21.2999 23 21.7266 23.0867 22.0799 23.26C22.4399 23.4333 22.7099 23.67 22.8899 23.97C23.0766 24.27 23.1699 24.6067 23.1699 24.98C23.1699 25.42 23.0599 25.78 22.8399 26.06C22.6199 26.3333 22.3633 26.52 22.0699 26.62V26.66C22.4499 26.7867 22.7499 26.9967 22.9699 27.29C23.1899 27.5833 23.2999 27.96 23.2999 28.42C23.2999 28.8333 23.2033 29.2 23.0099 29.52C22.8233 29.8333 22.5466 30.08 22.1799 30.26C21.8199 30.44 21.3899 30.53 20.8899 30.53C20.0899 30.53 19.4499 30.3333 18.9699 29.94C18.4966 29.5467 18.2466 28.9533 18.2199 28.16H19.8799C19.8866 28.4533 19.9699 28.6867 20.1299 28.86C20.2899 29.0267 20.5233 29.11 20.8299 29.11C21.0899 29.11 21.2899 29.0367 21.4299 28.89C21.5766 28.7367 21.6499 28.5367 21.6499 28.29C21.6499 27.97 21.5466 27.74 21.3399 27.6C21.1399 27.4533 20.8166 27.38 20.3699 27.38H20.0499V25.99H20.3699C20.7099 25.99 20.9833 25.9333 21.1899 25.82C21.4033 25.7 21.5099 25.49 21.5099 25.19C21.5099 24.95 21.4433 24.7633 21.3099 24.63C21.1766 24.4967 20.9933 24.43 20.7599 24.43C20.5066 24.43 20.3166 24.5067 20.1899 24.66C20.0699 24.8133 19.9999 25.0033 19.9799 25.23H18.3099Z" fill="white"/>
</svg>
