<svg width="24" height="24" viewBox="0 0 24 24" fill="none" xmlns="http://www.w3.org/2000/svg">
<rect width="24" height="24" rx="4" fill="#F86363"/>
<path fill-rule="evenodd" clip-rule="evenodd" d="M4.2101 15.2599C4.30754 15.3266 4.46893 15.36 4.69426 15.36C4.91959 15.36 5.08098 15.3266 5.17842 15.2599C5.27586 15.1932 5.33676 15.1083 5.36112 15.0052C5.38548 14.896 5.39766 14.7838 5.39766 14.6686V13.4768H6.56694C6.82272 13.4768 7.08155 13.4313 7.34342 13.3403C7.60529 13.2433 7.84585 13.1038 8.06509 12.9218C8.29042 12.7338 8.47007 12.5003 8.60406 12.2213C8.74412 11.9423 8.81416 11.6178 8.81416 11.2479C8.81416 10.8718 8.74412 10.5443 8.60406 10.2653C8.47007 9.98634 8.29042 9.75283 8.06509 9.56481C7.84585 9.37073 7.60529 9.2282 7.34342 9.13722C7.08764 9.04624 6.83186 9.00076 6.57607 9.00076H4.7034C4.47807 9.00076 4.31668 9.03411 4.21924 9.10083C4.1218 9.16755 4.0609 9.25549 4.03654 9.36466C4.01218 9.46777 4 9.57694 4 9.69217V14.6595C4 14.7747 4.01218 14.8869 4.03654 14.9961C4.0609 15.1053 4.11875 15.1932 4.2101 15.2599ZM6.57607 12.094H5.39766V10.3836H6.56694C6.73746 10.3836 6.88667 10.42 7.01456 10.4928C7.14854 10.5655 7.25207 10.6656 7.32515 10.793C7.39823 10.9204 7.43477 11.069 7.43477 11.2388C7.43477 11.4389 7.38909 11.6027 7.29774 11.73C7.21248 11.8574 7.10286 11.9514 6.96889 12.0121C6.84099 12.0667 6.71006 12.094 6.57607 12.094ZM9.62425 15.2599C9.72169 15.3266 9.87699 15.36 10.0901 15.36H11.7162C12.1668 15.36 12.581 15.2781 12.9585 15.1144C13.3422 14.9506 13.6772 14.7262 13.9634 14.4411C14.2496 14.15 14.4719 13.8104 14.6302 13.4222C14.7886 13.028 14.8678 12.6034 14.8678 12.1485C14.8678 11.6997 14.7886 11.2843 14.6302 10.9022C14.4719 10.5201 14.2496 10.1865 13.9634 9.90142C13.6772 9.61636 13.3453 9.39499 12.9677 9.2373C12.5901 9.07961 12.1821 9.00076 11.7436 9.00076H10.0993C9.87394 8.99469 9.71256 9.02502 9.61512 9.09173C9.51768 9.15845 9.45678 9.24639 9.43242 9.35557C9.40806 9.45867 9.39588 9.56784 9.39588 9.68308V14.6595C9.39588 14.7808 9.4111 14.896 9.44156 15.0052C9.472 15.1083 9.53291 15.1932 9.62425 15.2599ZM11.7436 13.9681H10.7844V10.3836H11.7344C12.0694 10.3836 12.3678 10.4624 12.6297 10.6201C12.8916 10.7718 13.0986 10.984 13.2509 11.257C13.4031 11.5299 13.4792 11.8392 13.4792 12.1849C13.4792 12.5306 13.4031 12.8369 13.2509 13.1038C13.0986 13.3707 12.8916 13.5829 12.6297 13.7406C12.3678 13.8922 12.0724 13.9681 11.7436 13.9681ZM15.7994 15.269C15.8968 15.3297 16.0552 15.36 16.2744 15.36C16.5058 15.36 16.6672 15.3297 16.7586 15.269C16.856 15.2023 16.9169 15.1174 16.9413 15.0143C16.9656 14.9051 16.9778 14.7929 16.9778 14.6777V12.7581H18.8414C18.9693 12.7581 19.0789 12.749 19.1702 12.7308C19.2677 12.7126 19.3438 12.6641 19.3986 12.5852C19.4534 12.5003 19.4808 12.3608 19.4808 12.1667C19.4808 11.9666 19.4534 11.8241 19.3986 11.7391C19.3438 11.6542 19.2677 11.6027 19.1702 11.5845C19.0789 11.5663 18.9723 11.5572 18.8505 11.5572H16.9778V10.3836H18.7766C18.8984 10.3836 19.0111 10.3745 19.1146 10.3563C19.2242 10.332 19.3125 10.2714 19.3795 10.1743C19.4465 10.0773 19.48 9.91962 19.48 9.70128C19.48 9.4708 19.4465 9.30704 19.3795 9.21001C19.3186 9.11296 19.2364 9.05534 19.1329 9.03715C19.0293 9.01289 18.9167 9.00076 18.7949 9.00076H16.3018C16.0339 9.00076 15.8481 9.04928 15.7446 9.14632C15.6411 9.24336 15.5893 9.42532 15.5893 9.69217V14.6686C15.5893 14.7838 15.5984 14.896 15.6167 15.0052C15.6411 15.1144 15.702 15.2023 15.7994 15.269Z" fill="white"/>
</svg>
