<svg width="40" height="40" viewBox="0 0 40 40" fill="none" xmlns="http://www.w3.org/2000/svg">
<mask id="path-1-inside-1_291_3728" fill="white">
<path fill-rule="evenodd" clip-rule="evenodd" d="M26.3367 0L34.9998 7.95719V36C34.9998 38.2091 33.209 40 30.9998 40H9C6.79086 40 5 38.2091 5 36V4C5 1.79086 6.79086 0 9 0H26.3367ZM26 1.72749V8.5H33.3734L26 1.72749ZM33.4998 9.5H26C25.4477 9.5 25 9.05229 25 8.5V1.5H9C7.61929 1.5 6.5 2.61929 6.5 4V36C6.5 37.3807 7.61929 38.5 9 38.5H30.9998C32.3805 38.5 33.4998 37.3807 33.4998 36V9.5Z"/>
</mask>
<path fill-rule="evenodd" clip-rule="evenodd" d="M26.3367 0L34.9998 7.95719V36C34.9998 38.2091 33.209 40 30.9998 40H9C6.79086 40 5 38.2091 5 36V4C5 1.79086 6.79086 0 9 0H26.3367ZM26 1.72749V8.5H33.3734L26 1.72749ZM33.4998 9.5H26C25.4477 9.5 25 9.05229 25 8.5V1.5H9C7.61929 1.5 6.5 2.61929 6.5 4V36C6.5 37.3807 7.61929 38.5 9 38.5H30.9998C32.3805 38.5 33.4998 37.3807 33.4998 36V9.5Z" fill="#101828"/>
<path d="M34.9998 7.95719H35.9998V7.51788L35.6763 7.22071L34.9998 7.95719ZM26.3367 0L27.0131 -0.736477L26.7262 -1H26.3367V0ZM26 1.72749L26.6765 0.991008L25 -0.548841V1.72749H26ZM26 8.5H25V9.5H26V8.5ZM33.3734 8.5V9.5H35.9404L34.0498 7.76352L33.3734 8.5ZM33.4998 9.5H34.4998V8.5H33.4998V9.5ZM25 1.5H26V0.5H25V1.5ZM35.6763 7.22071L27.0131 -0.736477L25.6602 0.736477L34.3234 8.69367L35.6763 7.22071ZM35.9998 36V7.95719H33.9998V36H35.9998ZM30.9998 41C33.7612 41 35.9998 38.7614 35.9998 36H33.9998C33.9998 37.6569 32.6567 39 30.9998 39V41ZM9 41H30.9998V39H9V41ZM4 36C4 38.7614 6.23858 41 9 41V39C7.34315 39 6 37.6569 6 36H4ZM4 4V36H6V4H4ZM9 -1C6.23858 -1 4 1.23858 4 4H6C6 2.34315 7.34315 1 9 1V-1ZM26.3367 -1H9V1H26.3367V-1ZM25 1.72749V8.5H27V1.72749H25ZM26 9.5H33.3734V7.5H26V9.5ZM25.3235 2.46396L32.6969 9.23648L34.0498 7.76352L26.6765 0.991008L25.3235 2.46396ZM33.4998 8.5H26V10.5H33.4998V8.5ZM26 8.5H24C24 9.60457 24.8954 10.5 26 10.5V8.5ZM26 8.5V1.5H24V8.5H26ZM9 2.5H25V0.5H9V2.5ZM7.5 4C7.5 3.17157 8.17157 2.5 9 2.5V0.5C7.067 0.5 5.5 2.067 5.5 4H7.5ZM7.5 36V4H5.5V36H7.5ZM9 37.5C8.17157 37.5 7.5 36.8284 7.5 36H5.5C5.5 37.933 7.067 39.5 9 39.5V37.5ZM30.9998 37.5H9V39.5H30.9998V37.5ZM32.4998 36C32.4998 36.8284 31.8282 37.5 30.9998 37.5V39.5C32.9328 39.5 34.4998 37.933 34.4998 36H32.4998ZM32.4998 9.5V36H34.4998V9.5H32.4998Z" fill="#101828" mask="url(#path-1-inside-1_291_3728)"/>
<rect x="1" y="20" width="28.6787" height="13.02" rx="2" fill="#101828"/>
<path d="M25.6888 30.02L24.2588 27.87L22.9988 30.02H21.0588L23.3088 26.45L21.0088 23H22.9988L24.4088 25.12L25.6488 23H27.5888L25.3588 26.54L27.6788 30.02H25.6888Z" fill="white"/>
<path d="M20.5306 23V24.37H18.6706V30.02H16.9606V24.37H15.1006V23H20.5306Z" fill="white"/>
<path d="M14.5902 25.26C14.5902 25.6667 14.4969 26.04 14.3102 26.38C14.1236 26.7133 13.8369 26.9833 13.4502 27.19C13.0636 27.3967 12.5836 27.5 12.0102 27.5H10.9502V30.02H9.24023V23H12.0102C12.5702 23 13.0436 23.0967 13.4302 23.29C13.8169 23.4833 14.1069 23.75 14.3002 24.09C14.4936 24.43 14.5902 24.82 14.5902 25.26ZM11.8802 26.14C12.2069 26.14 12.4502 26.0633 12.6102 25.91C12.7702 25.7567 12.8502 25.54 12.8502 25.26C12.8502 24.98 12.7702 24.7633 12.6102 24.61C12.4502 24.4567 12.2069 24.38 11.8802 24.38H10.9502V26.14H11.8802Z" fill="white"/>
<path d="M8.35 25.26C8.35 25.6667 8.25667 26.04 8.07 26.38C7.88333 26.7133 7.59667 26.9833 7.21 27.19C6.82333 27.3967 6.34333 27.5 5.77 27.5H4.71V30.02H3V23H5.77C6.33 23 6.80333 23.0967 7.19 23.29C7.57667 23.4833 7.86667 23.75 8.06 24.09C8.25333 24.43 8.35 24.82 8.35 25.26ZM5.64 26.14C5.96667 26.14 6.21 26.0633 6.37 25.91C6.53 25.7567 6.61 25.54 6.61 25.26C6.61 24.98 6.53 24.7633 6.37 24.61C6.21 24.4567 5.96667 24.38 5.64 24.38H4.71V26.14H5.64Z" fill="white"/>
</svg>
