<svg width="40" height="40" viewBox="0 0 40 40" fill="none" xmlns="http://www.w3.org/2000/svg">
<mask id="path-1-inside-1_291_3746" fill="white">
<path fill-rule="evenodd" clip-rule="evenodd" d="M26.3367 0L34.9998 7.95719V36C34.9998 38.2091 33.209 40 30.9998 40H9C6.79086 40 5 38.2091 5 36V4C5 1.79086 6.79086 0 9 0H26.3367ZM26 1.72749V8.5H33.3734L26 1.72749ZM33.4998 9.5H26C25.4477 9.5 25 9.05229 25 8.5V1.5H9C7.61929 1.5 6.5 2.61929 6.5 4V36C6.5 37.3807 7.61929 38.5 9 38.5H30.9998C32.3805 38.5 33.4998 37.3807 33.4998 36V9.5Z"/>
</mask>
<path fill-rule="evenodd" clip-rule="evenodd" d="M26.3367 0L34.9998 7.95719V36C34.9998 38.2091 33.209 40 30.9998 40H9C6.79086 40 5 38.2091 5 36V4C5 1.79086 6.79086 0 9 0H26.3367ZM26 1.72749V8.5H33.3734L26 1.72749ZM33.4998 9.5H26C25.4477 9.5 25 9.05229 25 8.5V1.5H9C7.61929 1.5 6.5 2.61929 6.5 4V36C6.5 37.3807 7.61929 38.5 9 38.5H30.9998C32.3805 38.5 33.4998 37.3807 33.4998 36V9.5Z" fill="#101828"/>
<path d="M34.9998 7.95719H35.9998V7.51788L35.6763 7.22071L34.9998 7.95719ZM26.3367 0L27.0131 -0.736477L26.7262 -1H26.3367V0ZM26 1.72749L26.6765 0.991008L25 -0.548841V1.72749H26ZM26 8.5H25V9.5H26V8.5ZM33.3734 8.5V9.5H35.9404L34.0498 7.76352L33.3734 8.5ZM33.4998 9.5H34.4998V8.5H33.4998V9.5ZM25 1.5H26V0.5H25V1.5ZM35.6763 7.22071L27.0131 -0.736477L25.6602 0.736477L34.3234 8.69367L35.6763 7.22071ZM35.9998 36V7.95719H33.9998V36H35.9998ZM30.9998 41C33.7612 41 35.9998 38.7614 35.9998 36H33.9998C33.9998 37.6569 32.6567 39 30.9998 39V41ZM9 41H30.9998V39H9V41ZM4 36C4 38.7614 6.23858 41 9 41V39C7.34315 39 6 37.6569 6 36H4ZM4 4V36H6V4H4ZM9 -1C6.23858 -1 4 1.23858 4 4H6C6 2.34315 7.34315 1 9 1V-1ZM26.3367 -1H9V1H26.3367V-1ZM25 1.72749V8.5H27V1.72749H25ZM26 9.5H33.3734V7.5H26V9.5ZM25.3235 2.46396L32.6969 9.23648L34.0498 7.76352L26.6765 0.991008L25.3235 2.46396ZM33.4998 8.5H26V10.5H33.4998V8.5ZM26 8.5H24C24 9.60457 24.8954 10.5 26 10.5V8.5ZM26 8.5V1.5H24V8.5H26ZM9 2.5H25V0.5H9V2.5ZM7.5 4C7.5 3.17157 8.17157 2.5 9 2.5V0.5C7.067 0.5 5.5 2.067 5.5 4H7.5ZM7.5 36V4H5.5V36H7.5ZM9 37.5C8.17157 37.5 7.5 36.8284 7.5 36H5.5C5.5 37.933 7.067 39.5 9 39.5V37.5ZM30.9998 37.5H9V39.5H30.9998V37.5ZM32.4998 36C32.4998 36.8284 31.8282 37.5 30.9998 37.5V39.5C32.9328 39.5 34.4998 37.933 34.4998 36H32.4998ZM32.4998 9.5V36H34.4998V9.5H32.4998Z" fill="#101828" mask="url(#path-1-inside-1_291_3746)"/>
<rect x="1" y="20" width="28.7364" height="13.19" rx="2" fill="#101828"/>
<path d="M25.7464 30.12L24.3164 27.97L23.0564 30.12H21.1164L23.3664 26.55L21.0664 23.1H23.0564L24.4664 25.22L25.7064 23.1H27.6464L25.4164 26.64L27.7364 30.12H25.7464Z" fill="white"/>
<path d="M17.834 30.19C17.3207 30.19 16.8607 30.1067 16.454 29.94C16.0473 29.7733 15.7207 29.5267 15.474 29.2C15.234 28.8733 15.1073 28.48 15.094 28.02H16.914C16.9407 28.28 17.0307 28.48 17.184 28.62C17.3373 28.7533 17.5373 28.82 17.784 28.82C18.0373 28.82 18.2373 28.7633 18.384 28.65C18.5307 28.53 18.604 28.3667 18.604 28.16C18.604 27.9867 18.544 27.8433 18.424 27.73C18.3107 27.6167 18.1673 27.5233 17.994 27.45C17.8273 27.3767 17.5873 27.2933 17.274 27.2C16.8207 27.06 16.4507 26.92 16.164 26.78C15.8773 26.64 15.6307 26.4333 15.424 26.16C15.2173 25.8867 15.114 25.53 15.114 25.09C15.114 24.4367 15.3507 23.9267 15.824 23.56C16.2973 23.1867 16.914 23 17.674 23C18.4473 23 19.0707 23.1867 19.544 23.56C20.0173 23.9267 20.2707 24.44 20.304 25.1H18.454C18.4407 24.8733 18.3573 24.6967 18.204 24.57C18.0507 24.4367 17.854 24.37 17.614 24.37C17.4073 24.37 17.2407 24.4267 17.114 24.54C16.9873 24.6467 16.924 24.8033 16.924 25.01C16.924 25.2367 17.0307 25.4133 17.244 25.54C17.4573 25.6667 17.7907 25.8033 18.244 25.95C18.6973 26.1033 19.064 26.25 19.344 26.39C19.6307 26.53 19.8773 26.7333 20.084 27C20.2907 27.2667 20.394 27.61 20.394 28.03C20.394 28.43 20.2907 28.7933 20.084 29.12C19.884 29.4467 19.5907 29.7067 19.204 29.9C18.8173 30.0933 18.3607 30.19 17.834 30.19Z" fill="white"/>
<path d="M12.2383 28.8H14.4783V30.12H10.5283V23.1H12.2383V28.8Z" fill="white"/>
<path d="M7.68 30.12L6.25 27.97L4.99 30.12H3.05L5.3 26.55L3 23.1H4.99L6.4 25.22L7.64 23.1H9.58L7.35 26.64L9.67 30.12H7.68Z" fill="white"/>
</svg>
