<svg width="24" height="24" viewBox="0 0 24 24" fill="none" xmlns="http://www.w3.org/2000/svg">
<rect width="24" height="24" rx="4" fill="black"/>
<path d="M20.8068 13.9514L19.8123 12.4562L18.9361 13.9514H17.587L19.1517 11.4687L17.5522 9.06958H18.9361L19.9166 10.5438L20.779 9.06958H22.128L20.5773 11.5313L22.1906 13.9514H20.8068Z" fill="white"/>
<path d="M12.3176 11.5034C12.3176 11.0212 12.4219 10.5924 12.6306 10.2169C12.8392 9.8367 13.1289 9.54231 13.4998 9.33368C13.8753 9.12042 14.2995 9.01379 14.7724 9.01379C15.3519 9.01379 15.848 9.16678 16.2606 9.47276C16.6732 9.77875 16.9491 10.196 17.0881 10.7245H15.7808C15.6834 10.5205 15.5443 10.3652 15.3635 10.2586C15.1874 10.1519 14.9857 10.0986 14.7585 10.0986C14.3923 10.0986 14.0956 10.2261 13.8684 10.4811C13.6412 10.7361 13.5276 11.0768 13.5276 11.5034C13.5276 11.9299 13.6412 12.2706 13.8684 12.5256C14.0956 12.7806 14.3923 12.9081 14.7585 12.9081C14.9857 12.9081 15.1874 12.8548 15.3635 12.7481C15.5443 12.6415 15.6834 12.4862 15.7808 12.2822H17.0881C16.9491 12.8107 16.6732 13.228 16.2606 13.534C15.848 13.8353 15.3519 13.986 14.7724 13.986C14.2995 13.986 13.8753 13.8817 13.4998 13.673C13.1289 13.4598 12.8392 13.1654 12.6306 12.7899C12.4219 12.4144 12.3176 11.9855 12.3176 11.5034Z" fill="white"/>
<path d="M9.36151 14C8.90253 14 8.48065 13.8934 8.09586 13.6801C7.7157 13.4669 7.41204 13.1701 7.18487 12.79C6.96234 12.4052 6.85107 11.974 6.85107 11.4965C6.85107 11.019 6.96234 10.5902 7.18487 10.21C7.41204 9.82986 7.7157 9.53315 8.09586 9.31989C8.48065 9.10663 8.90253 9 9.36151 9C9.82048 9 10.24 9.10663 10.6202 9.31989C11.005 9.53315 11.3063 9.82986 11.5242 10.21C11.7468 10.5902 11.858 11.019 11.858 11.4965C11.858 11.974 11.7468 12.4052 11.5242 12.79C11.3017 13.1701 11.0004 13.4669 10.6202 13.6801C10.24 13.8934 9.82048 14 9.36151 14ZM9.36151 12.9152C9.75094 12.9152 10.0616 12.7853 10.2934 12.5257C10.5298 12.2661 10.648 11.923 10.648 11.4965C10.648 11.0654 10.5298 10.7223 10.2934 10.4673C10.0616 10.2077 9.75094 10.0779 9.36151 10.0779C8.96744 10.0779 8.65219 10.2054 8.41575 10.4604C8.18394 10.7153 8.06804 11.0607 8.06804 11.4965C8.06804 11.9277 8.18394 12.2731 8.41575 12.5327C8.65219 12.7877 8.96744 12.9152 9.36151 12.9152Z" fill="white"/>
<path d="M3.82893 9.06958C4.34353 9.06958 4.79323 9.17157 5.17803 9.37556C5.56282 9.57955 5.85953 9.86698 6.06815 10.2379C6.28141 10.6041 6.38804 11.0283 6.38804 11.5105C6.38804 11.988 6.28141 12.4122 6.06815 12.7831C5.85953 13.154 5.5605 13.4414 5.17107 13.6454C4.78628 13.8494 4.3389 13.9514 3.82893 13.9514H2V9.06958H3.82893ZM3.75243 12.9222C4.20213 12.9222 4.55216 12.7993 4.8025 12.5536C5.05285 12.3079 5.17803 11.9602 5.17803 11.5105C5.17803 11.0608 5.05285 10.7107 4.8025 10.4604C4.55216 10.2101 4.20213 10.0849 3.75243 10.0849H3.18915V12.9222H3.75243Z" fill="white"/>
<path d="M20.7116 14.1437L19.7171 12.6486L18.8409 14.1437H17.4918L19.0565 11.6611L17.457 9.26196H18.8409L19.8214 10.7362L20.6837 9.26196H22.0328L20.4821 11.7237L22.0954 14.1437H20.7116Z" fill="white"/>
<path d="M12.2224 11.6957C12.2224 11.2136 12.3267 10.7848 12.5353 10.4092C12.744 10.0291 13.0337 9.73469 13.4046 9.52607C13.7801 9.31281 14.2043 9.20618 14.6772 9.20618C15.2567 9.20618 15.7528 9.35917 16.1654 9.66515C16.578 9.97113 16.8538 10.3884 16.9929 10.9169H15.6856C15.5882 10.7129 15.4491 10.5576 15.2683 10.451C15.0921 10.3443 14.8905 10.291 14.6633 10.291C14.2971 10.291 14.0003 10.4185 13.7732 10.6735C13.546 10.9285 13.4324 11.2692 13.4324 11.6957C13.4324 12.1223 13.546 12.463 13.7732 12.718C14.0003 12.973 14.2971 13.1005 14.6633 13.1005C14.8905 13.1005 15.0921 13.0472 15.2683 12.9405C15.4491 12.8339 15.5882 12.6786 15.6856 12.4746H16.9929C16.8538 13.0031 16.578 13.4204 16.1654 13.7263C15.7528 14.0277 15.2567 14.1784 14.6772 14.1784C14.2043 14.1784 13.7801 14.074 13.4046 13.8654C13.0337 13.6522 12.744 13.3578 12.5353 12.9823C12.3267 12.6067 12.2224 12.1779 12.2224 11.6957Z" fill="white"/>
<path d="M9.26629 14.1924C8.80732 14.1924 8.38544 14.0858 8.00064 13.8725C7.62049 13.6592 7.31682 13.3625 7.08966 12.9824C6.86713 12.5976 6.75586 12.1664 6.75586 11.6889C6.75586 11.2114 6.86713 10.7826 7.08966 10.4024C7.31682 10.0222 7.62049 9.72553 8.00064 9.51227C8.38544 9.29901 8.80732 9.19238 9.26629 9.19238C9.72526 9.19238 10.1448 9.29901 10.525 9.51227C10.9098 9.72553 11.2111 10.0222 11.429 10.4024C11.6515 10.7826 11.7628 11.2114 11.7628 11.6889C11.7628 12.1664 11.6515 12.5976 11.429 12.9824C11.2065 13.3625 10.9051 13.6592 10.525 13.8725C10.1448 14.0858 9.72526 14.1924 9.26629 14.1924ZM9.26629 13.1075C9.65572 13.1075 9.96634 12.9777 10.1981 12.7181C10.4346 12.4585 10.5528 12.1154 10.5528 11.6889C10.5528 11.2578 10.4346 10.9147 10.1981 10.6597C9.96634 10.4001 9.65572 10.2703 9.26629 10.2703C8.87223 10.2703 8.55697 10.3978 8.32053 10.6527C8.08873 10.9077 7.97283 11.2531 7.97283 11.6889C7.97283 12.1201 8.08873 12.4654 8.32053 12.7251C8.55697 12.9801 8.87223 13.1075 9.26629 13.1075Z" fill="white"/>
<path d="M3.73371 9.26196C4.24832 9.26196 4.69802 9.36396 5.08281 9.56794C5.4676 9.77193 5.76431 10.0594 5.97294 10.4303C6.18619 10.7965 6.29282 11.2207 6.29282 11.7029C6.29282 12.1804 6.18619 12.6046 5.97294 12.9755C5.76431 13.3463 5.46529 13.6338 5.07586 13.8378C4.69106 14.0417 4.24368 14.1437 3.73371 14.1437H1.90479V9.26196H3.73371ZM3.65722 13.1145C4.10692 13.1145 4.45694 12.9917 4.70729 12.746C4.95764 12.5003 5.08281 12.1526 5.08281 11.7029C5.08281 11.2532 4.95764 10.9031 4.70729 10.6528C4.45694 10.4024 4.10692 10.2773 3.65722 10.2773H3.09394V13.1145H3.65722Z" fill="white"/>
</svg>
