<svg width="40" height="40" viewBox="0 0 40 40" fill="none" xmlns="http://www.w3.org/2000/svg">
<mask id="path-1-inside-1_291_3758" fill="white">
<path fill-rule="evenodd" clip-rule="evenodd" d="M26.3367 0L34.9998 7.95719V36C34.9998 38.2091 33.209 40 30.9998 40H9C6.79086 40 5 38.2091 5 36V4C5 1.79086 6.79086 0 9 0H26.3367ZM26 1.72749V8.5H33.3734L26 1.72749ZM33.4998 9.5H26C25.4477 9.5 25 9.05229 25 8.5V1.5H9C7.61929 1.5 6.5 2.61929 6.5 4V36C6.5 37.3807 7.61929 38.5 9 38.5H30.9998C32.3805 38.5 33.4998 37.3807 33.4998 36V9.5Z"/>
</mask>
<path fill-rule="evenodd" clip-rule="evenodd" d="M26.3367 0L34.9998 7.95719V36C34.9998 38.2091 33.209 40 30.9998 40H9C6.79086 40 5 38.2091 5 36V4C5 1.79086 6.79086 0 9 0H26.3367ZM26 1.72749V8.5H33.3734L26 1.72749ZM33.4998 9.5H26C25.4477 9.5 25 9.05229 25 8.5V1.5H9C7.61929 1.5 6.5 2.61929 6.5 4V36C6.5 37.3807 7.61929 38.5 9 38.5H30.9998C32.3805 38.5 33.4998 37.3807 33.4998 36V9.5Z" fill="#101828"/>
<path d="M34.9998 7.95719H35.9998V7.51788L35.6763 7.22071L34.9998 7.95719ZM26.3367 0L27.0131 -0.736477L26.7262 -1H26.3367V0ZM26 1.72749L26.6765 0.991008L25 -0.548841V1.72749H26ZM26 8.5H25V9.5H26V8.5ZM33.3734 8.5V9.5H35.9404L34.0498 7.76352L33.3734 8.5ZM33.4998 9.5H34.4998V8.5H33.4998V9.5ZM25 1.5H26V0.5H25V1.5ZM35.6763 7.22071L27.0131 -0.736477L25.6602 0.736477L34.3234 8.69367L35.6763 7.22071ZM35.9998 36V7.95719H33.9998V36H35.9998ZM30.9998 41C33.7612 41 35.9998 38.7614 35.9998 36H33.9998C33.9998 37.6569 32.6567 39 30.9998 39V41ZM9 41H30.9998V39H9V41ZM4 36C4 38.7614 6.23858 41 9 41V39C7.34315 39 6 37.6569 6 36H4ZM4 4V36H6V4H4ZM9 -1C6.23858 -1 4 1.23858 4 4H6C6 2.34315 7.34315 1 9 1V-1ZM26.3367 -1H9V1H26.3367V-1ZM25 1.72749V8.5H27V1.72749H25ZM26 9.5H33.3734V7.5H26V9.5ZM25.3235 2.46396L32.6969 9.23648L34.0498 7.76352L26.6765 0.991008L25.3235 2.46396ZM33.4998 8.5H26V10.5H33.4998V8.5ZM26 8.5H24C24 9.60457 24.8954 10.5 26 10.5V8.5ZM26 8.5V1.5H24V8.5H26ZM9 2.5H25V0.5H9V2.5ZM7.5 4C7.5 3.17157 8.17157 2.5 9 2.5V0.5C7.067 0.5 5.5 2.067 5.5 4H7.5ZM7.5 36V4H5.5V36H7.5ZM9 37.5C8.17157 37.5 7.5 36.8284 7.5 36H5.5C5.5 37.933 7.067 39.5 9 39.5V37.5ZM30.9998 37.5H9V39.5H30.9998V37.5ZM32.4998 36C32.4998 36.8284 31.8282 37.5 30.9998 37.5V39.5C32.9328 39.5 34.4998 37.933 34.4998 36H32.4998ZM32.4998 9.5V36H34.4998V9.5H32.4998Z" fill="#101828" mask="url(#path-1-inside-1_291_3758)"/>
<rect x="1" y="20" width="18.3763" height="13.02" rx="2" fill="#101828"/>
<path d="M4.94 28.62H7.96V30.02H3V28.72L6 24.4H3V23H7.96V24.3L4.94 28.62Z" fill="white"/>
<path d="M10.787 23V30.02H9.07703V23H10.787Z" fill="white"/>
<path d="M17.3763 25.26C17.3763 25.6667 17.2829 26.04 17.0962 26.38C16.9096 26.7133 16.6229 26.9833 16.2362 27.19C15.8496 27.3967 15.3696 27.5 14.7963 27.5H13.7362V30.02H12.0262V23H14.7963C15.3563 23 15.8296 23.0967 16.2163 23.29C16.6029 23.4833 16.8929 23.75 17.0863 24.09C17.2796 24.43 17.3763 24.82 17.3763 25.26ZM14.6663 26.14C14.9929 26.14 15.2362 26.0633 15.3962 25.91C15.5562 25.7567 15.6363 25.54 15.6363 25.26C15.6363 24.98 15.5562 24.7633 15.3962 24.61C15.2362 24.4567 14.9929 24.38 14.6663 24.38H13.7362V26.14H14.6663Z" fill="white"/>
</svg>
