<svg width="40" height="40" viewBox="0 0 40 40" fill="none" xmlns="http://www.w3.org/2000/svg">
<mask id="path-1-inside-1_291_3764" fill="white">
<path fill-rule="evenodd" clip-rule="evenodd" d="M26.3367 0L34.9998 7.95719V36C34.9998 38.2091 33.209 40 30.9998 40H9C6.79086 40 5 38.2091 5 36V4C5 1.79086 6.79086 0 9 0H26.3367ZM26 1.72749V8.5H33.3734L26 1.72749ZM33.4998 9.5H26C25.4477 9.5 25 9.05229 25 8.5V1.5H9C7.61929 1.5 6.5 2.61929 6.5 4V36C6.5 37.3807 7.61929 38.5 9 38.5H30.9998C32.3805 38.5 33.4998 37.3807 33.4998 36V9.5Z"/>
</mask>
<path fill-rule="evenodd" clip-rule="evenodd" d="M26.3367 0L34.9998 7.95719V36C34.9998 38.2091 33.209 40 30.9998 40H9C6.79086 40 5 38.2091 5 36V4C5 1.79086 6.79086 0 9 0H26.3367ZM26 1.72749V8.5H33.3734L26 1.72749ZM33.4998 9.5H26C25.4477 9.5 25 9.05229 25 8.5V1.5H9C7.61929 1.5 6.5 2.61929 6.5 4V36C6.5 37.3807 7.61929 38.5 9 38.5H30.9998C32.3805 38.5 33.4998 37.3807 33.4998 36V9.5Z" fill="#101828"/>
<path d="M34.9998 7.95719H35.9998V7.51788L35.6763 7.22071L34.9998 7.95719ZM26.3367 0L27.0131 -0.736477L26.7262 -1H26.3367V0ZM26 1.72749L26.6765 0.991008L25 -0.548841V1.72749H26ZM26 8.5H25V9.5H26V8.5ZM33.3734 8.5V9.5H35.9404L34.0498 7.76352L33.3734 8.5ZM33.4998 9.5H34.4998V8.5H33.4998V9.5ZM25 1.5H26V0.5H25V1.5ZM35.6763 7.22071L27.0131 -0.736477L25.6602 0.736477L34.3234 8.69367L35.6763 7.22071ZM35.9998 36V7.95719H33.9998V36H35.9998ZM30.9998 41C33.7612 41 35.9998 38.7614 35.9998 36H33.9998C33.9998 37.6569 32.6567 39 30.9998 39V41ZM9 41H30.9998V39H9V41ZM4 36C4 38.7614 6.23858 41 9 41V39C7.34315 39 6 37.6569 6 36H4ZM4 4V36H6V4H4ZM9 -1C6.23858 -1 4 1.23858 4 4H6C6 2.34315 7.34315 1 9 1V-1ZM26.3367 -1H9V1H26.3367V-1ZM25 1.72749V8.5H27V1.72749H25ZM26 9.5H33.3734V7.5H26V9.5ZM25.3235 2.46396L32.6969 9.23648L34.0498 7.76352L26.6765 0.991008L25.3235 2.46396ZM33.4998 8.5H26V10.5H33.4998V8.5ZM26 8.5H24C24 9.60457 24.8954 10.5 26 10.5V8.5ZM26 8.5V1.5H24V8.5H26ZM9 2.5H25V0.5H9V2.5ZM7.5 4C7.5 3.17157 8.17157 2.5 9 2.5V0.5C7.067 0.5 5.5 2.067 5.5 4H7.5ZM7.5 36V4H5.5V36H7.5ZM9 37.5C8.17157 37.5 7.5 36.8284 7.5 36H5.5C5.5 37.933 7.067 39.5 9 39.5V37.5ZM30.9998 37.5H9V39.5H30.9998V37.5ZM32.4998 36C32.4998 36.8284 31.8282 37.5 30.9998 37.5V39.5C32.9328 39.5 34.4998 37.933 34.4998 36H32.4998ZM32.4998 9.5V36H34.4998V9.5H32.4998Z" fill="#101828" mask="url(#path-1-inside-1_291_3764)"/>
<rect x="1" y="20" width="23.4065" height="13.02" rx="2" fill="#101828"/>
<path d="M20.4765 30.02L19.0165 27.37H18.6065V30.02H16.8965V23H19.7665C20.3198 23 20.7898 23.0967 21.1765 23.29C21.5698 23.4833 21.8632 23.75 22.0565 24.09C22.2498 24.4233 22.3465 24.7967 22.3465 25.21C22.3465 25.6767 22.2132 26.0933 21.9465 26.46C21.6865 26.8267 21.2998 27.0867 20.7865 27.24L22.4065 30.02H20.4765ZM18.6065 26.16H19.6665C19.9798 26.16 20.2132 26.0833 20.3665 25.93C20.5265 25.7767 20.6065 25.56 20.6065 25.28C20.6065 25.0133 20.5265 24.8033 20.3665 24.65C20.2132 24.4967 19.9798 24.42 19.6665 24.42H18.6065V26.16Z" fill="white"/>
<path d="M13.8935 28.78H11.2735L10.8535 30.02H9.06348L11.6035 23H13.5835L16.1235 30.02H14.3135L13.8935 28.78ZM13.4535 27.46L12.5835 24.89L11.7235 27.46H13.4535Z" fill="white"/>
<path d="M6.58 30.02L5.12 27.37H4.71V30.02H3V23H5.87C6.42333 23 6.89333 23.0967 7.28 23.29C7.67333 23.4833 7.96667 23.75 8.16 24.09C8.35333 24.4233 8.45 24.7967 8.45 25.21C8.45 25.6767 8.31667 26.0933 8.05 26.46C7.79 26.8267 7.40333 27.0867 6.89 27.24L8.51 30.02H6.58ZM4.71 26.16H5.77C6.08333 26.16 6.31667 26.0833 6.47 25.93C6.63 25.7767 6.71 25.56 6.71 25.28C6.71 25.0133 6.63 24.8033 6.47 24.65C6.31667 24.4967 6.08333 24.42 5.77 24.42H4.71V26.16Z" fill="white"/>
</svg>
