<svg width="24" height="24" viewBox="0 0 24 24" fill="none" xmlns="http://www.w3.org/2000/svg">
<rect width="24" height="24" rx="4" fill="black"/>
<path d="M20.2319 9.08337L18.154 14.9415H16.3682L14.2903 9.08337H15.8091L17.2611 13.5062L18.7214 9.08337H20.2319Z" fill="white"/>
<path d="M11.7181 15C11.2898 15 10.9059 14.9305 10.5665 14.7914C10.2272 14.6523 9.95459 14.4465 9.74875 14.1739C9.54847 13.9013 9.44277 13.573 9.43164 13.1892H10.9504C10.9727 13.4061 11.0478 13.573 11.1757 13.6898C11.3037 13.8011 11.4706 13.8567 11.6764 13.8567C11.8878 13.8567 12.0547 13.8095 12.1771 13.7149C12.2995 13.6147 12.3607 13.4784 12.3607 13.306C12.3607 13.1613 12.3106 13.0417 12.2105 12.9471C12.1159 12.8526 11.9963 12.7747 11.8517 12.7135C11.7126 12.6523 11.5123 12.5828 11.2508 12.5049C10.8725 12.388 10.5638 12.2712 10.3245 12.1544C10.0853 12.0376 9.87948 11.8651 9.70702 11.637C9.53456 11.4089 9.44833 11.1113 9.44833 10.7441C9.44833 10.1989 9.64583 9.7733 10.0408 9.46732C10.4358 9.15577 10.9504 9 11.5846 9C12.23 9 12.7501 9.15577 13.1451 9.46732C13.5401 9.7733 13.7515 10.2017 13.7793 10.7524H12.2355C12.2244 10.5633 12.1549 10.4159 12.0269 10.3102C11.899 10.1989 11.7348 10.1433 11.5346 10.1433C11.3621 10.1433 11.223 10.1905 11.1173 10.2851C11.0116 10.3741 10.9588 10.5049 10.9588 10.6773C10.9588 10.8665 11.0478 11.0139 11.2258 11.1196C11.4038 11.2253 11.682 11.3394 12.0603 11.4618C12.4386 11.5897 12.7446 11.7121 12.9782 11.8289C13.2175 11.9458 13.4233 12.1154 13.5958 12.338C13.7682 12.5605 13.8544 12.847 13.8544 13.1975C13.8544 13.5313 13.7682 13.8345 13.5958 14.1071C13.4289 14.3797 13.1841 14.5967 12.8614 14.758C12.5387 14.9193 12.1576 15 11.7181 15Z" fill="white"/>
<path d="M3 12.0042C3 11.4256 3.12517 10.911 3.37552 10.4604C3.62587 10.0042 3.97357 9.65094 4.41864 9.40059C4.86926 9.14468 5.3783 9.01672 5.94576 9.01672C6.64117 9.01672 7.23644 9.20031 7.73157 9.56749C8.2267 9.93467 8.55772 10.4354 8.72462 11.0696H7.15577C7.03894 10.8248 6.87204 10.6384 6.65508 10.5105C6.44367 10.3825 6.20167 10.3185 5.92907 10.3185C5.48957 10.3185 5.13352 10.4715 4.86092 10.7775C4.58832 11.0835 4.45202 11.4924 4.45202 12.0042C4.45202 12.516 4.58832 12.9249 4.86092 13.2309C5.13352 13.5369 5.48957 13.6899 5.92907 13.6899C6.20167 13.6899 6.44367 13.6259 6.65508 13.4979C6.87204 13.37 7.03894 13.1836 7.15577 12.9388H8.72462C8.55772 13.5731 8.2267 14.0737 7.73157 14.4409C7.23644 14.8025 6.64117 14.9833 5.94576 14.9833C5.3783 14.9833 4.86926 14.8582 4.41864 14.6078C3.97357 14.3519 3.62587 13.9986 3.37552 13.548C3.12517 13.0974 3 12.5828 3 12.0042Z" fill="white"/>
</svg>
