<svg width="24" height="24" viewBox="0 0 24 24" fill="none" xmlns="http://www.w3.org/2000/svg">
<g clip-path="url(#clip0_584_1050)">
<rect width="24" height="24" rx="4" fill="black"/>
<path fill-rule="evenodd" clip-rule="evenodd" d="M16.6765 6.00914C16.92 5.97148 17.1686 6.05182 17.3468 6.22004C17.525 6.39076 17.6154 6.63178 17.5978 6.87531L16.8648 14.6257L16.8633 14.6466C16.8562 14.7422 16.8494 14.8359 16.8447 14.9295C16.7819 15.9839 15.9083 16.82 14.8388 16.82C13.7141 16.82 12.8079 15.8986 12.8305 14.7688C12.853 13.6842 13.7493 12.8055 14.8338 12.803C15.0422 12.803 15.2405 12.8331 15.4288 12.8908L15.7803 9.06711L10.5861 9.83035L10.0338 15.8107C10.0237 15.9086 10.0187 16.004 10.0137 16.1019C9.95596 17.1589 9.0798 18 8.00783 18C6.87059 18 5.95176 17.0535 6.00196 15.9036C6.04715 14.8642 6.89318 14.0231 7.93252 13.9855C8.15846 13.9779 8.37687 14.0081 8.58273 14.0683L9.16516 7.73396C9.1978 7.36489 9.48148 7.06612 9.84801 7.0134L16.6765 6.00914Z" fill="white"/>
</g>
<defs>
<clipPath id="clip0_584_1050">
<rect width="24" height="24" fill="white"/>
</clipPath>
</defs>
</svg>
