<svg width="24" height="24" viewBox="0 0 24 24" fill="none" xmlns="http://www.w3.org/2000/svg">
<rect width="24" height="24" rx="4" fill="#F97066"/>
<path d="M20.3872 14.6891L19.2283 12.9467L18.2072 14.6891H16.635L18.4584 11.7959L16.5945 9H18.2072L19.3499 10.7181L20.3548 9H21.927L20.1198 11.8689L22 14.6891H20.3872Z" fill="white"/>
<path d="M16.207 9V10.1103H14.6996V14.6891H13.3138V10.1103H11.8064V9H16.207Z" fill="white"/>
<path d="M11.3929 10.8315C11.3929 11.1611 11.3172 11.4637 11.1659 11.7392C11.0147 12.0093 10.7823 12.2282 10.469 12.3956C10.1556 12.5631 9.76662 12.6469 9.30198 12.6469H8.44294V14.6891H7.05713V9H9.30198C9.75582 9 10.1394 9.07834 10.4528 9.23502C10.7661 9.3917 11.0012 9.60781 11.1578 9.88335C11.3145 10.1589 11.3929 10.475 11.3929 10.8315ZM9.19663 11.5447C9.46136 11.5447 9.65857 11.4826 9.78823 11.3583C9.9179 11.234 9.98273 11.0585 9.98273 10.8315C9.98273 10.6046 9.9179 10.429 9.78823 10.3048C9.65857 10.1805 9.46136 10.1184 9.19663 10.1184H8.44294V11.5447H9.19663Z" fill="white"/>
<path d="M6.33573 10.8315C6.33573 11.1611 6.26009 11.4637 6.10881 11.7392C5.95753 12.0093 5.72521 12.2282 5.41185 12.3956C5.09849 12.5631 4.70949 12.6469 4.24485 12.6469H3.38581V14.6891H2V9H4.24485C4.69869 9 5.08228 9.07834 5.39565 9.23502C5.70901 9.3917 5.94403 9.60781 6.10071 9.88335C6.25739 10.1589 6.33573 10.475 6.33573 10.8315ZM4.1395 11.5447C4.40424 11.5447 4.60144 11.4826 4.7311 11.3583C4.86077 11.234 4.9256 11.0585 4.9256 10.8315C4.9256 10.6046 4.86077 10.429 4.7311 10.3048C4.60144 10.1805 4.40424 10.1184 4.1395 10.1184H3.38581V11.5447H4.1395Z" fill="white"/>
</svg>
