<svg width="24" height="24" viewBox="0 0 24 24" fill="none" xmlns="http://www.w3.org/2000/svg">
<rect width="24" height="24" rx="4" fill="#17A8B1"/>
<path fill-rule="evenodd" clip-rule="evenodd" d="M6 8.57143C6 8.25584 6.25584 8 6.57143 8H16.8571C17.1727 8 17.4286 8.25584 17.4286 8.57143C17.4286 8.88702 17.1727 9.14286 16.8571 9.14286H6.57143C6.25584 9.14286 6 8.88702 6 8.57143ZM6 10.8571C6 10.5416 6.25584 10.2857 6.57143 10.2857H14.5714C14.887 10.2857 15.1429 10.5416 15.1429 10.8571C15.1429 11.1727 14.887 11.4286 14.5714 11.4286H6.57143C6.25584 11.4286 6 11.1727 6 10.8571ZM6 13.1429C6 12.8273 6.25584 12.5714 6.57143 12.5714H16.8571C17.1727 12.5714 17.4286 12.8273 17.4286 13.1429C17.4286 13.4584 17.1727 13.7143 16.8571 13.7143H6.57143C6.25584 13.7143 6 13.4584 6 13.1429ZM6 15.4286C6 15.113 6.25584 14.8571 6.57143 14.8571H14.5714C14.887 14.8571 15.1429 15.113 15.1429 15.4286C15.1429 15.7442 14.887 16 14.5714 16H6.57143C6.25584 16 6 15.7442 6 15.4286Z" fill="white"/>
</svg>
