<svg width="40" height="40" viewBox="0 0 40 40" fill="none" xmlns="http://www.w3.org/2000/svg">
<mask id="path-1-inside-1_291_3734" fill="white">
<path fill-rule="evenodd" clip-rule="evenodd" d="M26.3367 0L34.9998 7.95719V36C34.9998 38.2091 33.209 40 30.9998 40H9C6.79086 40 5 38.2091 5 36V4C5 1.79086 6.79086 0 9 0H26.3367ZM26 1.72749V8.5H33.3734L26 1.72749ZM33.4998 9.5H26C25.4477 9.5 25 9.05229 25 8.5V1.5H9C7.61929 1.5 6.5 2.61929 6.5 4V36C6.5 37.3807 7.61929 38.5 9 38.5H30.9998C32.3805 38.5 33.4998 37.3807 33.4998 36V9.5Z"/>
</mask>
<path fill-rule="evenodd" clip-rule="evenodd" d="M26.3367 0L34.9998 7.95719V36C34.9998 38.2091 33.209 40 30.9998 40H9C6.79086 40 5 38.2091 5 36V4C5 1.79086 6.79086 0 9 0H26.3367ZM26 1.72749V8.5H33.3734L26 1.72749ZM33.4998 9.5H26C25.4477 9.5 25 9.05229 25 8.5V1.5H9C7.61929 1.5 6.5 2.61929 6.5 4V36C6.5 37.3807 7.61929 38.5 9 38.5H30.9998C32.3805 38.5 33.4998 37.3807 33.4998 36V9.5Z" fill="#101828"/>
<path d="M34.9998 7.95719H35.9998V7.51788L35.6763 7.22071L34.9998 7.95719ZM26.3367 0L27.0131 -0.736477L26.7262 -1H26.3367V0ZM26 1.72749L26.6765 0.991008L25 -0.548841V1.72749H26ZM26 8.5H25V9.5H26V8.5ZM33.3734 8.5V9.5H35.9404L34.0498 7.76352L33.3734 8.5ZM33.4998 9.5H34.4998V8.5H33.4998V9.5ZM25 1.5H26V0.5H25V1.5ZM35.6763 7.22071L27.0131 -0.736477L25.6602 0.736477L34.3234 8.69367L35.6763 7.22071ZM35.9998 36V7.95719H33.9998V36H35.9998ZM30.9998 41C33.7612 41 35.9998 38.7614 35.9998 36H33.9998C33.9998 37.6569 32.6567 39 30.9998 39V41ZM9 41H30.9998V39H9V41ZM4 36C4 38.7614 6.23858 41 9 41V39C7.34315 39 6 37.6569 6 36H4ZM4 4V36H6V4H4ZM9 -1C6.23858 -1 4 1.23858 4 4H6C6 2.34315 7.34315 1 9 1V-1ZM26.3367 -1H9V1H26.3367V-1ZM25 1.72749V8.5H27V1.72749H25ZM26 9.5H33.3734V7.5H26V9.5ZM25.3235 2.46396L32.6969 9.23648L34.0498 7.76352L26.6765 0.991008L25.3235 2.46396ZM33.4998 8.5H26V10.5H33.4998V8.5ZM26 8.5H24C24 9.60457 24.8954 10.5 26 10.5V8.5ZM26 8.5V1.5H24V8.5H26ZM9 2.5H25V0.5H9V2.5ZM7.5 4C7.5 3.17157 8.17157 2.5 9 2.5V0.5C7.067 0.5 5.5 2.067 5.5 4H7.5ZM7.5 36V4H5.5V36H7.5ZM9 37.5C8.17157 37.5 7.5 36.8284 7.5 36H5.5C5.5 37.933 7.067 39.5 9 39.5V37.5ZM30.9998 37.5H9V39.5H30.9998V37.5ZM32.4998 36C32.4998 36.8284 31.8282 37.5 30.9998 37.5V39.5C32.9328 39.5 34.4998 37.933 34.4998 36H32.4998ZM32.4998 9.5V36H34.4998V9.5H32.4998Z" fill="#101828" mask="url(#path-1-inside-1_291_3734)"/>
<rect x="1" y="20" width="24.6495" height="13.19" rx="2" fill="#101828"/>
<path d="M23.6495 23.1L21.1595 30.12H19.0195L16.5295 23.1H18.3495L20.0895 28.4L21.8395 23.1H23.6495Z" fill="white"/>
<path d="M13.4473 30.19C12.9339 30.19 12.4739 30.1067 12.0673 29.94C11.6606 29.7733 11.3339 29.5267 11.0873 29.2C10.8473 28.8733 10.7206 28.48 10.7073 28.02H12.5273C12.5539 28.28 12.6439 28.48 12.7973 28.62C12.9506 28.7533 13.1506 28.82 13.3973 28.82C13.6506 28.82 13.8506 28.7633 13.9973 28.65C14.1439 28.53 14.2173 28.3667 14.2173 28.16C14.2173 27.9867 14.1573 27.8433 14.0373 27.73C13.9239 27.6167 13.7806 27.5233 13.6073 27.45C13.4406 27.3767 13.2006 27.2933 12.8873 27.2C12.4339 27.06 12.0639 26.92 11.7773 26.78C11.4906 26.64 11.2439 26.4333 11.0373 26.16C10.8306 25.8867 10.7273 25.53 10.7273 25.09C10.7273 24.4367 10.9639 23.9267 11.4373 23.56C11.9106 23.1867 12.5273 23 13.2873 23C14.0606 23 14.6839 23.1867 15.1573 23.56C15.6306 23.9267 15.8839 24.44 15.9173 25.1H14.0673C14.0539 24.8733 13.9706 24.6967 13.8173 24.57C13.6639 24.4367 13.4673 24.37 13.2273 24.37C13.0206 24.37 12.8539 24.4267 12.7273 24.54C12.6006 24.6467 12.5373 24.8033 12.5373 25.01C12.5373 25.2367 12.6439 25.4133 12.8573 25.54C13.0706 25.6667 13.4039 25.8033 13.8573 25.95C14.3106 26.1033 14.6773 26.25 14.9573 26.39C15.2439 26.53 15.4906 26.7333 15.6973 27C15.9039 27.2667 16.0073 27.61 16.0073 28.03C16.0073 28.43 15.9039 28.7933 15.6973 29.12C15.4973 29.4467 15.2039 29.7067 14.8173 29.9C14.4306 30.0933 13.9739 30.19 13.4473 30.19Z" fill="white"/>
<path d="M3 26.6C3 25.9067 3.15 25.29 3.45 24.75C3.75 24.2034 4.16667 23.78 4.7 23.48C5.24 23.1734 5.85 23.02 6.53 23.02C7.36333 23.02 8.07667 23.24 8.67 23.68C9.26333 24.12 9.66 24.72 9.86 25.48H7.98C7.84 25.1867 7.64 24.9634 7.38 24.81C7.12667 24.6567 6.83667 24.58 6.51 24.58C5.98333 24.58 5.55667 24.7634 5.23 25.13C4.90333 25.4967 4.74 25.9867 4.74 26.6C4.74 27.2134 4.90333 27.7034 5.23 28.07C5.55667 28.4367 5.98333 28.62 6.51 28.62C6.83667 28.62 7.12667 28.5434 7.38 28.39C7.64 28.2367 7.84 28.0134 7.98 27.72H9.86C9.66 28.48 9.26333 29.08 8.67 29.52C8.07667 29.9534 7.36333 30.17 6.53 30.17C5.85 30.17 5.24 30.02 4.7 29.72C4.16667 29.4134 3.75 28.99 3.45 28.45C3.15 27.91 3 27.2934 3 26.6Z" fill="white"/>
</svg>
