<svg width="24" height="24" viewBox="0 0 24 24" fill="none" xmlns="http://www.w3.org/2000/svg">
<rect width="24" height="24" rx="4" fill="#2B9A5C"/>
<path fill-rule="evenodd" clip-rule="evenodd" d="M15.4712 16.4719C15.6208 16.4191 15.7968 16.3047 15.9992 16.1287C16.2984 15.8735 16.4436 15.6447 16.4348 15.4423C16.4348 15.2399 16.3116 15.0023 16.0652 14.7295L13.5251 11.7634L16.0652 8.80275C16.3116 8.53875 16.4348 8.30114 16.4348 8.08995C16.4436 7.87875 16.2984 7.64554 15.9992 7.39035C15.8056 7.20555 15.634 7.08674 15.4844 7.03394C15.3348 6.98114 15.1896 6.98995 15.0488 7.06035C14.908 7.13075 14.754 7.26714 14.5868 7.46954L12.2174 10.2364L9.848 7.46954C9.6808 7.26714 9.5268 7.13075 9.386 7.06035C9.2452 6.98995 9.1 6.98114 8.9504 7.03394C8.8008 7.08674 8.6292 7.20555 8.4356 7.39035C8.1452 7.64554 8 7.87875 8 8.08995C8 8.30114 8.1232 8.53875 8.3696 8.80275L10.9097 11.7634L8.3696 14.7295C8.1232 15.0023 8 15.2399 8 15.4423C8 15.6447 8.1452 15.8735 8.4356 16.1287C8.638 16.3047 8.814 16.4191 8.9636 16.4719C9.1132 16.5247 9.2584 16.5159 9.3992 16.4455C9.54 16.3751 9.6896 16.2431 9.848 16.0495L12.2174 13.2878L14.5868 16.0495C14.754 16.2431 14.9036 16.3751 15.0356 16.4455C15.1764 16.5159 15.3216 16.5247 15.4712 16.4719Z" fill="white"/>
</svg>
