<svg width="24" height="24" viewBox="0 0 24 24" fill="none" xmlns="http://www.w3.org/2000/svg">
<rect width="24" height="24" rx="4" fill="#2B9A5C"/>
<path d="M20.9816 14.9415L19.7883 13.1474L18.7368 14.9415H17.1179L18.9955 11.9624L17.0762 9.08337H18.7368L19.9134 10.8525L20.9482 9.08337H22.5671L20.7062 12.0375L22.6422 14.9415H20.9816Z" fill="white"/>
<path d="M14.379 15C13.9507 15 13.5668 14.9305 13.2274 14.7914C12.8881 14.6523 12.6155 14.4465 12.4096 14.1739C12.2094 13.9013 12.1037 13.573 12.0925 13.1892H13.6113C13.6336 13.4061 13.7087 13.573 13.8366 13.6898C13.9646 13.8011 14.1315 13.8567 14.3373 13.8567C14.5487 13.8567 14.7156 13.8095 14.838 13.7149C14.9604 13.6147 15.0216 13.4784 15.0216 13.306C15.0216 13.1613 14.9715 13.0417 14.8714 12.9471C14.7768 12.8526 14.6572 12.7747 14.5126 12.7135C14.3735 12.6523 14.1732 12.5828 13.9117 12.5049C13.5334 12.388 13.2247 12.2712 12.9854 12.1544C12.7462 12.0376 12.5404 11.8651 12.3679 11.637C12.1954 11.4089 12.1092 11.1113 12.1092 10.7441C12.1092 10.1989 12.3067 9.7733 12.7017 9.46732C13.0967 9.15577 13.6113 9 14.2455 9C14.8909 9 15.411 9.15577 15.806 9.46732C16.201 9.7733 16.4124 10.2017 16.4402 10.7524H14.8964C14.8853 10.5633 14.8158 10.4159 14.6878 10.3102C14.5598 10.1989 14.3957 10.1433 14.1954 10.1433C14.023 10.1433 13.8839 10.1905 13.7782 10.2851C13.6725 10.3741 13.6197 10.5049 13.6197 10.6773C13.6197 10.8665 13.7087 11.0139 13.8867 11.1196C14.0647 11.2253 14.3429 11.3394 14.7212 11.4618C15.0995 11.5897 15.4055 11.7121 15.6391 11.8289C15.8783 11.9458 16.0842 12.1154 16.2566 12.338C16.4291 12.5605 16.5153 12.847 16.5153 13.1975C16.5153 13.5313 16.4291 13.8345 16.2566 14.1071C16.0897 14.3797 15.845 14.5967 15.5223 14.758C15.1996 14.9193 14.8185 15 14.379 15Z" fill="white"/>
<path d="M9.70945 13.84H11.5787V14.9415H8.28247V9.08337H9.70945V13.84Z" fill="white"/>
<path d="M5.90542 14.9415L4.7121 13.1474L3.66064 14.9415H2.04172L3.91933 11.9624L2 9.08337H3.66064L4.83727 10.8525L5.87204 9.08337H7.49096L5.63004 12.0375L7.56606 14.9415H5.90542Z" fill="white"/>
</svg>
