<svg width="24" height="24" viewBox="0 0 24 24" fill="none" xmlns="http://www.w3.org/2000/svg">
<rect width="24" height="24" rx="4" fill="black"/>
<path d="M15.374 12.0023C15.374 11.4241 15.4991 10.9098 15.7493 10.4594C15.9995 10.0035 16.347 9.65045 16.7918 9.40024C17.2422 9.14448 17.7509 9.0166 18.3181 9.0166C19.0131 9.0166 19.608 9.20008 20.1028 9.56705C20.5977 9.93401 20.9285 10.4344 21.0953 11.0683H19.5274C19.4106 10.8236 19.2438 10.6374 19.027 10.5095C18.8157 10.3816 18.5738 10.3177 18.3014 10.3177C17.8621 10.3177 17.5063 10.4706 17.2339 10.7764C16.9614 11.0822 16.8252 11.4908 16.8252 12.0023C16.8252 12.5139 16.9614 12.9225 17.2339 13.2283C17.5063 13.5341 17.8621 13.687 18.3014 13.687C18.5738 13.687 18.8157 13.6231 19.027 13.4952C19.2438 13.3673 19.4106 13.1811 19.5274 12.9364H21.0953C20.9285 13.5703 20.5977 14.0707 20.1028 14.4376C19.608 14.799 19.0131 14.9797 18.3181 14.9797C17.7509 14.9797 17.2422 14.8546 16.7918 14.6044C16.347 14.3487 15.9995 13.9956 15.7493 13.5453C15.4991 13.0949 15.374 12.5806 15.374 12.0023Z" fill="white"/>
<path d="M11.8286 14.9965C11.2782 14.9965 10.7722 14.8686 10.3107 14.6129C9.85482 14.3571 9.49064 14.0013 9.21819 13.5453C8.95131 13.0838 8.81787 12.5668 8.81787 11.9941C8.81787 11.4214 8.95131 10.9071 9.21819 10.4512C9.49064 9.99525 9.85482 9.6394 10.3107 9.38364C10.7722 9.12788 11.2782 9 11.8286 9C12.3791 9 12.8823 9.12788 13.3382 9.38364C13.7997 9.6394 14.1611 9.99525 14.4224 10.4512C14.6893 10.9071 14.8227 11.4214 14.8227 11.9941C14.8227 12.5668 14.6893 13.0838 14.4224 13.5453C14.1555 14.0013 13.7941 14.3571 13.3382 14.6129C12.8823 14.8686 12.3791 14.9965 11.8286 14.9965ZM11.8286 13.6955C12.2957 13.6955 12.6682 13.5398 12.9462 13.2284C13.2298 12.917 13.3715 12.5056 13.3715 11.9941C13.3715 11.477 13.2298 11.0656 12.9462 10.7598C12.6682 10.4484 12.2957 10.2927 11.8286 10.2927C11.356 10.2927 10.9779 10.4456 10.6944 10.7514C10.4164 11.0572 10.2774 11.4714 10.2774 11.9941C10.2774 12.5112 10.4164 12.9254 10.6944 13.2367C10.9779 13.5426 11.356 13.6955 11.8286 13.6955Z" fill="white"/>
<path d="M5.19344 9.0835C5.8106 9.0835 6.34992 9.20582 6.81141 9.45046C7.27289 9.6951 7.62873 10.0398 7.87893 10.4846C8.1347 10.9239 8.26258 11.4326 8.26258 12.0109C8.26258 12.5835 8.1347 13.0923 7.87893 13.5371C7.62873 13.9819 7.27011 14.3266 6.80307 14.5713C6.34158 14.8159 5.80504 14.9382 5.19344 14.9382H3V9.0835H5.19344ZM5.10169 13.7039C5.64102 13.7039 6.0608 13.5565 6.36104 13.2619C6.66129 12.9672 6.81141 12.5502 6.81141 12.0109C6.81141 11.4715 6.66129 11.0517 6.36104 10.7515C6.0608 10.4513 5.64102 10.3011 5.10169 10.3011H4.42615V13.7039H5.10169Z" fill="white"/>
</svg>
