<svg width="24" height="24" viewBox="0 0 24 24" fill="none" xmlns="http://www.w3.org/2000/svg">
<rect width="24" height="24" rx="4" fill="#1570EF"/>
<path d="M17.9801 9C19.637 9 20.9801 7.65685 20.9801 6C20.9801 4.34315 19.637 3 17.9801 3C16.3233 3 14.9801 4.34315 14.9801 6C14.9801 7.65685 16.3233 9 17.9801 9Z" fill="white"/>
<path d="M8.66461 9.90018L2.71832 18.4893C2.15529 19.3025 1.87378 19.7092 1.88981 20.0473C1.90377 20.3419 2.04699 20.6152 2.28119 20.7943C2.55012 21 3.04469 21 4.03383 21H18.9801L11.2956 9.90018C10.8537 9.26182 10.6327 8.94264 10.3567 8.83044C10.1152 8.73228 9.845 8.73228 9.60354 8.83044C9.32752 8.94264 9.10655 9.26182 8.66461 9.90018Z" fill="white"/>
<path d="M19.9906 21H18.9803L14.9048 15.1132L15.649 13.9969C16.0941 13.3292 16.3167 12.9953 16.5972 12.879C16.8424 12.7773 17.1181 12.7773 17.3633 12.879C17.6438 12.9953 17.8664 13.3292 18.3115 13.9969L21.3219 18.5124L21.3219 18.5125C21.8606 19.3205 22.13 19.7245 22.11 20.0596C22.0925 20.3514 21.9482 20.6211 21.715 20.7975C21.4474 21 20.9618 21 19.9906 21Z" fill="white" fill-opacity="0.8"/>
</svg>
